<?xml version="1.0" encoding="utf-8"?>
<!-- Generator: Adobe Illustrator 28.1.0, SVG Export Plug-In . SVG Version: 6.00 Build 0)  -->
<svg version="1.1" id="Layer_1" xmlns="http://www.w3.org/2000/svg" xmlns:xlink="http://www.w3.org/1999/xlink" x="0px" y="0px"
	 viewBox="0 0 127.1 96.4" style="enable-background:new 0 0 127.1 96.4;" xml:space="preserve">
<style type="text/css">
	.st0{fill:url(#SVGID_1_);}
</style>
<g id="图层_2">
	<g id="Discord_Logos">
		<g id="Discord_Logo_-_Large_-_White">
			<linearGradient id="SVGID_1_" gradientUnits="userSpaceOnUse" x1="9.598686e-05" y1="48.18" x2="127.1404" y2="48.18">
				<stop  offset="0" style="stop-color:#918863"/>
				<stop  offset="1" style="stop-color:#FFFDB8"/>
			</linearGradient>
			<path class="st0" d="M107.7,8.1C99.3,4.2,90.5,1.5,81.5,0c-1.2,2.2-2.4,4.5-3.4,6.8c-9.6-1.5-19.5-1.5-29.1,0
				c-1-2.3-2.1-4.6-3.4-6.8c-9.1,1.5-17.9,4.3-26.2,8.1C2.8,32.7-1.7,56.6,0.5,80.2l0,0c9.7,7.2,20.6,12.6,32.2,16.2
				c2.6-3.5,4.9-7.2,6.9-11.1c-3.8-1.4-7.4-3.1-10.9-5.2c0.9-0.7,1.8-1.3,2.7-2c20.4,9.6,44,9.6,64.3,0c0.9,0.7,1.8,1.4,2.7,2
				c-3.5,2-7.1,3.8-10.9,5.2c2,3.9,4.3,7.6,6.9,11.1c11.6-3.5,22.5-9,32.2-16.1l0,0C129.2,52.8,122.1,29.1,107.7,8.1z M42.5,65.7
				C36.2,65.7,31,60,31,53s5-12.7,11.4-12.7S54,46,53.9,53S48.8,65.7,42.5,65.7z M84.7,65.7c-6.3,0-11.4-5.7-11.4-12.7
				s5-12.7,11.4-12.7S96.2,46,96.1,53S91.1,65.7,84.7,65.7z"/>
		</g>
	</g>
</g>
</svg>
