<?xml version="1.0" encoding="utf-8"?>
<!-- Generator: Adobe Illustrator 28.1.0, SVG Export Plug-In . SVG Version: 6.00 Build 0)  -->
<svg version="1.1" id="Layer_1" xmlns="http://www.w3.org/2000/svg" xmlns:xlink="http://www.w3.org/1999/xlink" x="0px" y="0px"
	 viewBox="0 0 1184.7 1120.8" style="enable-background:new 0 0 1184.7 1120.8;" xml:space="preserve">
<style type="text/css">
	.st0{fill:url(#SVGID_1_);}
	.st1{fill:url(#SVGID_00000062878726201239842630000016481577062275240609_);}
</style>
<g id="_x23_fcfcfcff">
	
		<linearGradient id="SVGID_1_" gradientUnits="userSpaceOnUse" x1="0" y1="575.6171" x2="1184.7" y2="575.6171" gradientTransform="matrix(1 0 0 -1 0 1136)">
		<stop  offset="0" style="stop-color:#918863"/>
		<stop  offset="1" style="stop-color:#FFFDB8"/>
	</linearGradient>
	<path class="st0" d="M613.2,0h22.7c40.8,1.1,81.5,6.1,121.1,15.8c71.9,17.4,140.1,49.4,199.6,93.3c76,55.9,137.5,131.3,176.9,217
		c32.2,69.6,49.4,145.9,51.2,222.6v19c-1,74.9-17,149.5-47.2,218.1c-27.9,63.6-67.9,121.9-117.1,171
		c-48.9,48.9-107,88.7-170.3,116.6c-74.8,33.1-157,49.2-238.7,47.2c-25.2-1-50.5-0.4-75.7-0.5c-178.6,0-357.1,0-535.7,0
		c50.1-86.9,100.2-173.8,150.2-260.7C119.6,810.9,96.4,757.7,82,702.2c-23.1-88.7-24.1-183-2.8-272.2c16.2-67.9,45.3-132.7,85.3-190
		c40.8-58.5,92.9-109.2,152.6-148.3c53-34.8,112-60.5,173.6-75.6C530.8,6.1,571.9,1,613.2,0 M624.4,75.3c0,323.4,0,646.8,0,970.1
		c35.7,0.1,71.4-3.9,106.2-11.6c71.4-15.9,138.9-48.3,196-94c60-47.8,108.5-110,140.1-179.9c36-79.3,49.6-168.5,39.7-255
		c-9.7-87-43.9-171-97.4-240.2c-39.6-51.5-89.6-94.9-146.1-126.9C790.6,96.8,707.5,75,624.4,75.3 M364.2,413.8
		c-35.1,6.4-68.8,20-99.2,38.6c-31.3,19.2-59.2,43.5-83.5,71.1c15.4,13.3,30.7,26.6,46,39.9c17.2-18.4,35.6-35.7,55.9-50.5
		c25.3-18.5,54.1-33,85.1-38.5c24.2-6.1,49.9-6,74.2,0c32.9,7.9,62.9,25.2,89.3,46c12.3-15.3,24.5-30.7,36.8-46
		c-26.8-20.1-56-37.2-87.6-48.7C444.1,411.9,403.4,406.8,364.2,413.8z"/>
	
		<linearGradient id="SVGID_00000166645311940980568730000009101053542825276052_" gradientUnits="userSpaceOnUse" x1="685.6" y1="648.3163" x2="1073.2999" y2="648.3163" gradientTransform="matrix(1 0 0 -1 0 1136)">
		<stop  offset="0" style="stop-color:#918863"/>
		<stop  offset="1" style="stop-color:#FFFDB8"/>
	</linearGradient>
	<path style="fill:url(#SVGID_00000166645311940980568730000009101053542825276052_);" d="M784.5,422.8
		c37.8-11.5,78.3-14.2,117.1-6.8c48.9,11.1,94,35.8,131.9,68.3c14.2,12.1,27.5,25.3,39.8,39.2c-15.4,13.4-30.8,26.7-46.2,40
		c-36.8-42.5-85.5-75.9-140.6-89c-26-5.2-53.1-4.5-78.8,2.1c-31.2,7.9-59.9,24-85.1,43.9c-12.3-15.4-24.6-30.8-37-46.2
		C715.5,451.9,748.7,433.6,784.5,422.8z"/>
</g>
</svg>
