<?xml version="1.0" encoding="UTF-8"?>
<!DOCTYPE svg PUBLIC "-//W3C//DTD SVG 1.1//EN" "http://www.w3.org/Graphics/SVG/1.1/DTD/svg11.dtd">
<svg xmlns="http://www.w3.org/2000/svg" version="1.1" width="800px" height="800px" style="shape-rendering:geometricPrecision; text-rendering:geometricPrecision; image-rendering:optimizeQuality; fill-rule:evenodd; clip-rule:evenodd" xmlns:xlink="http://www.w3.org/1999/xlink">
<g><path style="opacity:1" fill="#030004" d="M -0.5,-0.5 C 266.167,-0.5 532.833,-0.5 799.5,-0.5C 799.5,266.167 799.5,532.833 799.5,799.5C 532.833,799.5 266.167,799.5 -0.5,799.5C -0.5,532.833 -0.5,266.167 -0.5,-0.5 Z"/></g>
<g><path style="opacity:1" fill="#e3e2d5" d="M 617.5,41.5 C 617.5,41.8333 617.5,42.1667 617.5,42.5C 467.489,42.1788 317.489,42.5121 167.5,43.5C 169.631,42.6862 171.964,42.1862 174.5,42C 322.166,41.5 469.833,41.3333 617.5,41.5 Z"/></g>
<g><path style="opacity:1" fill="#433f35" d="M 617.5,42.5 C 617.5,42.1667 617.5,41.8333 617.5,41.5C 620.85,41.335 624.183,41.5017 627.5,42C 628.737,42.2321 629.737,42.7321 630.5,43.5C 626.202,42.8005 621.869,42.4672 617.5,42.5 Z"/></g>
<g><path style="opacity:1" fill="#fcfbf2" d="M 617.5,42.5 C 621.869,42.4672 626.202,42.8005 630.5,43.5C 649.74,46.6889 667.74,53.0223 684.5,62.5C 685.262,64.2624 686.596,65.2624 688.5,65.5C 688.973,66.9063 689.973,67.573 691.5,67.5C 692.262,69.2624 693.596,70.2624 695.5,70.5C 728.273,96.361 747.939,130.028 754.5,171.5C 755.651,320.158 755.818,468.824 755,617.5C 753.458,638.621 747.958,658.621 738.5,677.5C 724.911,702.089 705.911,721.422 681.5,735.5C 680.167,734.833 680.167,734.167 681.5,733.5C 688.42,729.573 694.753,724.907 700.5,719.5C 707.5,714.5 713.5,708.5 718.5,701.5C 726.571,693.039 732.904,683.372 737.5,672.5C 745.685,657.289 750.351,640.955 751.5,623.5C 752.666,474.001 752.833,324.334 752,174.5C 748.248,142.668 735.414,115.334 713.5,92.5C 707.09,84.7538 699.757,78.0871 691.5,72.5C 684.78,67.4715 677.447,63.4715 669.5,60.5C 663.564,57.0713 657.231,54.4046 650.5,52.5C 643.973,50.5279 637.306,49.1946 630.5,48.5C 626.028,47.3563 621.362,46.523 616.5,46C 595.836,45.5 575.169,45.3334 554.5,45.5C 517.5,45.5 480.5,45.5 443.5,45.5C 422.5,45.5 401.5,45.5 380.5,45.5C 310.837,44.625 241.171,44.2917 171.5,44.5C 169.901,44.7678 168.568,44.4345 167.5,43.5C 317.489,42.5121 467.489,42.1788 617.5,42.5 Z"/></g>
<g><path style="opacity:1" fill="#e7e3ca" d="M 167.5,43.5 C 168.568,44.4345 169.901,44.7678 171.5,44.5C 163.002,45.7507 154.668,47.7507 146.5,50.5C 144.007,50.8693 143.34,50.2027 144.5,48.5C 151.966,45.9401 159.632,44.2734 167.5,43.5 Z"/></g>
<g><path style="opacity:1" fill="#baaf7f" d="M 246.5,46.5 C 256.833,46.5 267.167,46.5 277.5,46.5C 277.928,48.4047 277.262,50.238 275.5,52C 276.24,53.7849 276.907,55.6183 277.5,57.5C 276.416,62.7383 277.416,67.9049 280.5,73C 279.692,73.3076 279.025,73.8076 278.5,74.5C 279.833,75.5 279.833,76.5 278.5,77.5C 278.833,78.5 279.5,79.1667 280.5,79.5C 281.036,88.8179 282.869,97.4846 286,105.5C 286.333,105.167 286.667,104.833 287,104.5C 288.495,114.677 290.995,124.511 294.5,134C 294.167,134.333 293.833,134.667 293.5,135C 295.845,140.552 297.178,146.385 297.5,152.5C 297.43,153.772 297.097,154.938 296.5,156C 297.422,160.004 298.756,163.837 300.5,167.5C 300.064,170.179 299.564,172.845 299,175.5C 298.667,174.5 298.333,173.5 298,172.5C 297.522,175.205 296.689,177.205 295.5,178.5C 285.701,182.633 276.367,187.633 267.5,193.5C 267.343,192.127 267.51,190.793 268,189.5C 269.503,189.835 270.836,189.835 272,189.5C 272.44,187.924 273.273,186.59 274.5,185.5C 273.413,184.895 272.246,185.228 271,186.5C 270.801,184.598 269.967,183.098 268.5,182C 269.196,175.048 269.529,167.881 269.5,160.5C 265.627,159.576 264.627,157.242 266.5,153.5C 266.002,150.002 265.002,146.668 263.5,143.5C 264.61,141.504 264.276,139.671 262.5,138C 262.833,137.667 263.167,137.333 263.5,137C 261.356,131.31 259.69,125.477 258.5,119.5C 256.897,119.688 255.563,119.188 254.5,118C 255.271,116.002 254.605,114.335 252.5,113C 252.833,112.667 253.167,112.333 253.5,112C 252.833,110 252.167,108 251.5,106C 252.167,105.333 252.833,104.667 253.5,104C 253.193,102.318 252.86,100.652 252.5,99C 252.903,97.5272 253.57,96.1939 254.5,95C 253.109,89.8408 251.109,84.8408 248.5,80C 248.973,77.0673 249.14,73.9006 249,70.5C 244.344,67.6296 243.511,63.9629 246.5,59.5C 245.233,57.5723 244.566,55.739 244.5,54C 246.412,52.7998 247.745,51.1331 248.5,49C 249.5,48.6667 250.5,48.3333 251.5,48C 249.618,47.8019 247.952,47.3019 246.5,46.5 Z"/></g>
<g><path style="opacity:1" fill="#beb282" d="M 277.5,46.5 C 304.502,46.3334 331.502,46.5 358.5,47C 359.025,47.6924 359.692,48.1924 360.5,48.5C 361.841,55.3477 363.508,61.8477 365.5,68C 363.297,72.2257 363.297,76.559 365.5,81C 365.271,84.4287 365.271,87.7621 365.5,91C 366.13,92.892 367.13,94.5587 368.5,96C 368.043,96.414 367.709,96.914 367.5,97.5C 369.048,103.27 370.715,108.937 372.5,114.5C 372.156,118.962 372.156,123.629 372.5,128.5C 374.077,136.883 375.743,145.217 377.5,153.5C 376.448,153.351 375.448,153.517 374.5,154C 376.167,154.333 377.833,154.667 379.5,155C 378.263,155.232 377.263,155.732 376.5,156.5C 350.581,158.479 325.914,164.812 302.5,175.5C 300.046,176.227 297.713,177.227 295.5,178.5C 296.689,177.205 297.522,175.205 298,172.5C 298.333,173.5 298.667,174.5 299,175.5C 299.564,172.845 300.064,170.179 300.5,167.5C 298.756,163.837 297.422,160.004 296.5,156C 297.097,154.938 297.43,153.772 297.5,152.5C 297.178,146.385 295.845,140.552 293.5,135C 293.833,134.667 294.167,134.333 294.5,134C 290.995,124.511 288.495,114.677 287,104.5C 286.667,104.833 286.333,105.167 286,105.5C 282.869,97.4846 281.036,88.8179 280.5,79.5C 279.5,79.1667 278.833,78.5 278.5,77.5C 279.833,76.5 279.833,75.5 278.5,74.5C 279.025,73.8076 279.692,73.3076 280.5,73C 277.416,67.9049 276.416,62.7383 277.5,57.5C 276.907,55.6183 276.24,53.7849 275.5,52C 277.262,50.238 277.928,48.4047 277.5,46.5 Z"/></g>
<g><path style="opacity:1" fill="#c5b987" d="M 171.5,44.5 C 241.171,44.2917 310.837,44.625 380.5,45.5C 393.421,46.0375 406.421,46.8708 419.5,48C 414.502,48.4276 414.335,49.2609 419,50.5C 419.333,53.8333 419.667,57.1667 420,60.5C 422.667,71.176 425.334,81.8426 428,92.5C 428.588,105.863 430.422,119.029 433.5,132C 433.265,132.873 432.931,133.707 432.5,134.5C 434.52,141.231 435.854,148.064 436.5,155C 435.833,155.333 435.167,155.667 434.5,156C 452.192,159.589 469.526,164.423 486.5,170.5C 500.771,176.969 514.771,183.969 528.5,191.5C 528.833,192.167 529.167,192.833 529.5,193.5C 533.763,196.981 538.097,200.481 542.5,204C 542.272,204.399 541.938,204.565 541.5,204.5C 532.093,198.435 522.427,192.768 512.5,187.5C 484.217,171.853 453.884,162.853 421.5,160.5C 418.5,159.833 415.5,159.167 412.5,158.5C 416.182,158.665 419.848,158.499 423.5,158C 407.872,156.618 392.206,156.118 376.5,156.5C 377.263,155.732 378.263,155.232 379.5,155C 377.833,154.667 376.167,154.333 374.5,154C 375.448,153.517 376.448,153.351 377.5,153.5C 375.743,145.217 374.077,136.883 372.5,128.5C 372.156,123.629 372.156,118.962 372.5,114.5C 370.715,108.937 369.048,103.27 367.5,97.5C 367.709,96.914 368.043,96.414 368.5,96C 367.13,94.5587 366.13,92.892 365.5,91C 365.271,87.7621 365.271,84.4287 365.5,81C 363.297,76.559 363.297,72.2257 365.5,68C 363.508,61.8477 361.841,55.3477 360.5,48.5C 359.692,48.1924 359.025,47.6924 358.5,47C 331.502,46.5 304.502,46.3334 277.5,46.5C 267.167,46.5 256.833,46.5 246.5,46.5C 219.831,46.3334 193.165,46.5 166.5,47C 160.071,49.1277 153.404,50.2944 146.5,50.5C 154.668,47.7507 163.002,45.7507 171.5,44.5 Z"/></g>
<g><path style="opacity:1" fill="#cabe8b" d="M 380.5,45.5 C 401.5,45.5 422.5,45.5 443.5,45.5C 451.316,46.4924 459.316,46.8257 467.5,46.5C 468.952,47.3019 470.618,47.8019 472.5,48C 470.167,48.3333 467.833,48.6667 465.5,49C 466.793,49.49 468.127,49.6567 469.5,49.5C 471.003,61.5188 472.837,73.5188 475,85.5C 475.799,90.0868 475.632,94.5868 474.5,99C 476.261,111.543 478.594,124.209 481.5,137C 481.167,137.333 480.833,137.667 480.5,138C 481.407,142.684 482.407,147.35 483.5,152C 483.167,152.333 482.833,152.667 482.5,153C 483.3,157.08 483.8,161.247 484,165.5C 485.779,167.017 485.279,167.851 482.5,168C 484.066,168.608 485.4,169.442 486.5,170.5C 469.526,164.423 452.192,159.589 434.5,156C 435.167,155.667 435.833,155.333 436.5,155C 435.854,148.064 434.52,141.231 432.5,134.5C 432.931,133.707 433.265,132.873 433.5,132C 430.422,119.029 428.588,105.863 428,92.5C 425.334,81.8426 422.667,71.176 420,60.5C 419.667,57.1667 419.333,53.8333 419,50.5C 414.335,49.2609 414.502,48.4276 419.5,48C 406.421,46.8708 393.421,46.0375 380.5,45.5 Z"/></g>
<g><path style="opacity:1" fill="#d0c490" d="M 467.5,46.5 C 481.167,46.5 494.833,46.5 508.5,46.5C 508.389,47.1174 508.056,47.6174 507.5,48C 510.085,61.6773 512.419,75.5106 514.5,89.5C 513.986,97.1235 514.986,104.623 517.5,112C 517.355,112.772 517.022,113.439 516.5,114C 518.161,123.631 519.828,133.297 521.5,143C 521.167,144 520.833,145 520.5,146C 521.85,155.064 523.516,164.064 525.5,173C 525.378,176.202 524.712,179.535 523.5,183C 525.057,185.955 526.724,188.788 528.5,191.5C 514.771,183.969 500.771,176.969 486.5,170.5C 485.4,169.442 484.066,168.608 482.5,168C 485.279,167.851 485.779,167.017 484,165.5C 483.8,161.247 483.3,157.08 482.5,153C 482.833,152.667 483.167,152.333 483.5,152C 482.407,147.35 481.407,142.684 480.5,138C 480.833,137.667 481.167,137.333 481.5,137C 478.594,124.209 476.261,111.543 474.5,99C 475.632,94.5868 475.799,90.0868 475,85.5C 472.837,73.5188 471.003,61.5188 469.5,49.5C 468.127,49.6567 466.793,49.49 465.5,49C 467.833,48.6667 470.167,48.3333 472.5,48C 470.618,47.8019 468.952,47.3019 467.5,46.5 Z"/></g>
<g><path style="opacity:1" fill="#d6cb97" d="M 508.5,46.5 C 522.504,46.3334 536.504,46.5001 550.5,47C 551.328,47.9147 552.328,48.5814 553.5,49C 552.234,51.3834 551.568,54.05 551.5,57C 551.835,62.8473 552.335,68.6806 553,74.5C 555.647,86.3116 557.814,97.9783 559.5,109.5C 559.392,110.442 559.059,111.275 558.5,112C 560.049,119.584 561.382,127.25 562.5,135C 562.166,150.615 563.999,166.115 568,181.5C 569.274,193.508 569.608,205.508 569,217.5C 570.308,219.641 571.808,221.641 573.5,223.5C 573.154,224.696 572.654,224.696 572,223.5C 571.536,224.094 571.369,224.761 571.5,225.5C 564.705,219.875 558.038,214.042 551.5,208C 544.538,202.525 537.204,197.692 529.5,193.5C 529.167,192.833 528.833,192.167 528.5,191.5C 526.724,188.788 525.057,185.955 523.5,183C 524.712,179.535 525.378,176.202 525.5,173C 523.516,164.064 521.85,155.064 520.5,146C 520.833,145 521.167,144 521.5,143C 519.828,133.297 518.161,123.631 516.5,114C 517.022,113.439 517.355,112.772 517.5,112C 514.986,104.623 513.986,97.1235 514.5,89.5C 512.419,75.5106 510.085,61.6773 507.5,48C 508.056,47.6174 508.389,47.1174 508.5,46.5 Z"/></g>
<g><path style="opacity:1" fill="#dcd19e" d="M 443.5,45.5 C 480.5,45.5 517.5,45.5 554.5,45.5C 564.319,46.494 574.319,46.8274 584.5,46.5C 588.303,74.9906 591.969,103.491 595.5,132C 594.997,136.743 594.997,141.41 595.5,146C 596.948,155.692 598.614,165.358 600.5,175C 599.089,183.378 600.089,192.045 603.5,201C 603.13,213.346 604.464,225.679 607.5,238C 607.352,242.668 607.352,247.668 607.5,253C 606.773,255.124 606.106,257.291 605.5,259.5C 607.375,262.24 608.042,265.073 607.5,268C 608.328,268.915 609.328,269.581 610.5,270C 609.862,271.707 609.862,273.54 610.5,275.5C 599.443,257.423 586.443,240.757 571.5,225.5C 571.369,224.761 571.536,224.094 572,223.5C 572.654,224.696 573.154,224.696 573.5,223.5C 571.808,221.641 570.308,219.641 569,217.5C 569.608,205.508 569.274,193.508 568,181.5C 563.999,166.115 562.166,150.615 562.5,135C 561.382,127.25 560.049,119.584 558.5,112C 559.059,111.275 559.392,110.442 559.5,109.5C 557.814,97.9783 555.647,86.3116 553,74.5C 552.335,68.6806 551.835,62.8473 551.5,57C 551.568,54.05 552.234,51.3834 553.5,49C 552.328,48.5814 551.328,47.9147 550.5,47C 536.504,46.5001 522.504,46.3334 508.5,46.5C 494.833,46.5 481.167,46.5 467.5,46.5C 459.316,46.8257 451.316,46.4924 443.5,45.5 Z"/></g>
<g><path style="opacity:1" fill="#dfd5a4" d="M 584.5,46.5 C 589.167,46.5 593.833,46.5 598.5,46.5C 598.918,47.2216 599.584,47.7216 600.5,48C 599.833,48.3333 599.167,48.6667 598.5,49C 599.996,53.2169 601.33,57.5502 602.5,62C 601.724,63.7698 601.89,65.6031 603,67.5C 603.408,77.185 604.075,86.8517 605,96.5C 605.283,101.592 606.45,106.426 608.5,111C 608.464,117.393 608.464,123.727 608.5,130C 614.034,175.881 619.034,221.381 623.5,266.5C 622.191,271.196 622.191,275.696 623.5,280C 622.624,281.586 621.624,283.086 620.5,284.5C 622.223,289.613 624.223,294.613 626.5,299.5C 626.167,300.167 625.833,300.833 625.5,301.5C 628.306,307.586 630.306,313.919 631.5,320.5C 624.81,305.448 617.81,290.448 610.5,275.5C 609.862,273.54 609.862,271.707 610.5,270C 609.328,269.581 608.328,268.915 607.5,268C 608.042,265.073 607.375,262.24 605.5,259.5C 606.106,257.291 606.773,255.124 607.5,253C 607.352,247.668 607.352,242.668 607.5,238C 604.464,225.679 603.13,213.346 603.5,201C 600.089,192.045 599.089,183.378 600.5,175C 598.614,165.358 596.948,155.692 595.5,146C 594.997,141.41 594.997,136.743 595.5,132C 591.969,103.491 588.303,74.9906 584.5,46.5 Z"/></g>
<g><path style="opacity:1" fill="#e1d8a8" d="M 598.5,46.5 C 605.752,46.4307 612.752,46.9307 619.5,48C 619.015,50.6801 618.682,53.3468 618.5,56C 619.857,69.7618 621.857,83.4285 624.5,97C 623.903,98.0617 623.57,99.2284 623.5,100.5C 624.852,118.838 627.185,137.005 630.5,155C 629.505,158.725 629.839,162.392 631.5,166C 630.978,166.561 630.645,167.228 630.5,168C 632.022,178.114 633.189,188.28 634,198.5C 634.784,202.05 635.617,205.55 636.5,209C 636.102,212.241 635.769,215.741 635.5,219.5C 639.313,255.78 642.647,292.114 645.5,328.5C 643.207,337.391 643.54,346.224 646.5,355C 646.066,357.713 645.732,360.713 645.5,364C 646.969,382.886 648.802,401.72 651,420.5C 652.415,424.23 653.582,428.063 654.5,432C 654.722,437.606 654.388,443.272 653.5,449C 655.167,460.667 656.833,472.333 658.5,484C 658.607,490.306 658.273,496.806 657.5,503.5C 658.763,518.345 660.096,533.178 661.5,548C 660.183,553.785 660.516,559.452 662.5,565C 661.665,571.642 661.498,578.475 662,585.5C 665.028,606.049 666.194,626.883 665.5,648C 666.644,662.272 667.477,676.772 668,691.5C 668.309,692.766 668.809,693.933 669.5,695C 667.851,707.57 668.517,720.07 671.5,732.5C 669.547,735.538 667.547,738.538 665.5,741.5C 661.221,743.37 656.888,745.036 652.5,746.5C 653.388,743.619 654.388,741.119 655.5,739C 652.61,729.48 651.61,720.147 652.5,711C 652.093,705.916 651.427,700.916 650.5,696C 650.854,683.404 650.854,670.07 650.5,656C 648.549,644.327 647.883,632.66 648.5,621C 646.613,591.239 644.613,561.739 642.5,532.5C 642.771,523.853 642.771,515.353 642.5,507C 641.179,499.905 640.012,492.738 639,485.5C 638.771,482.542 637.604,480.042 635.5,478C 636.749,473.172 638.083,468.339 639.5,463.5C 637.896,461.821 637.229,459.821 637.5,457.5C 643.114,430.458 644.947,403.124 643,375.5C 642.851,371.867 642.018,368.534 640.5,365.5C 638.908,350.208 635.908,335.208 631.5,320.5C 630.306,313.919 628.306,307.586 625.5,301.5C 625.833,300.833 626.167,300.167 626.5,299.5C 624.223,294.613 622.223,289.613 620.5,284.5C 621.624,283.086 622.624,281.586 623.5,280C 622.191,275.696 622.191,271.196 623.5,266.5C 619.034,221.381 614.034,175.881 608.5,130C 608.464,123.727 608.464,117.393 608.5,111C 606.45,106.426 605.283,101.592 605,96.5C 604.075,86.8517 603.408,77.185 603,67.5C 601.89,65.6031 601.724,63.7698 602.5,62C 601.33,57.5502 599.996,53.2169 598.5,49C 599.167,48.6667 599.833,48.3333 600.5,48C 599.584,47.7216 598.918,47.2216 598.5,46.5 Z"/></g>
<g><path style="opacity:1" fill="#e3dbad" d="M 554.5,45.5 C 575.169,45.3334 595.836,45.5 616.5,46C 621.362,46.523 626.028,47.3563 630.5,48.5C 629.909,49.1515 629.243,49.8182 628.5,50.5C 632.27,78.3976 635.437,106.398 638,134.5C 638.677,138.407 639.51,142.241 640.5,146C 640.5,154.333 640.5,162.667 640.5,171C 642.82,184.072 644.82,197.239 646.5,210.5C 646.449,212.1 646.116,213.6 645.5,215C 647.447,238.449 649.947,261.616 653,284.5C 657.335,337.173 661.001,389.506 664,441.5C 664.289,446.605 665.122,451.605 666.5,456.5C 665.734,460.259 665.401,463.926 665.5,467.5C 668.185,477.607 668.852,487.773 667.5,498C 668.187,508.507 669.187,519.174 670.5,530C 670.456,531.764 670.122,533.431 669.5,535C 670.167,540 670.833,545 671.5,550C 671.581,551.467 671.247,553.134 670.5,555C 671.085,561.392 671.752,567.725 672.5,574C 672.569,597.086 673.902,619.919 676.5,642.5C 676.403,652.861 676.403,663.194 676.5,673.5C 677.187,679.653 677.854,685.82 678.5,692C 676.805,703.637 677.805,714.971 681.5,726C 680.325,728.491 680.325,730.991 681.5,733.5C 680.167,734.167 680.167,734.833 681.5,735.5C 672.19,742.111 661.856,746.444 650.5,748.5C 650.062,748.565 649.728,748.399 649.5,748C 650.527,747.487 651.527,746.987 652.5,746.5C 656.888,745.036 661.221,743.37 665.5,741.5C 667.547,738.538 669.547,735.538 671.5,732.5C 668.517,720.07 667.851,707.57 669.5,695C 668.809,693.933 668.309,692.766 668,691.5C 667.477,676.772 666.644,662.272 665.5,648C 666.194,626.883 665.028,606.049 662,585.5C 661.498,578.475 661.665,571.642 662.5,565C 660.516,559.452 660.183,553.785 661.5,548C 660.096,533.178 658.763,518.345 657.5,503.5C 658.273,496.806 658.607,490.306 658.5,484C 656.833,472.333 655.167,460.667 653.5,449C 654.388,443.272 654.722,437.606 654.5,432C 653.582,428.063 652.415,424.23 651,420.5C 648.802,401.72 646.969,382.886 645.5,364C 645.732,360.713 646.066,357.713 646.5,355C 643.54,346.224 643.207,337.391 645.5,328.5C 642.647,292.114 639.313,255.78 635.5,219.5C 635.769,215.741 636.102,212.241 636.5,209C 635.617,205.55 634.784,202.05 634,198.5C 633.189,188.28 632.022,178.114 630.5,168C 630.645,167.228 630.978,166.561 631.5,166C 629.839,162.392 629.505,158.725 630.5,155C 627.185,137.005 624.852,118.838 623.5,100.5C 623.57,99.2284 623.903,98.0617 624.5,97C 621.857,83.4285 619.857,69.7618 618.5,56C 618.682,53.3468 619.015,50.6801 619.5,48C 612.752,46.9307 605.752,46.4307 598.5,46.5C 593.833,46.5 589.167,46.5 584.5,46.5C 574.319,46.8274 564.319,46.494 554.5,45.5 Z"/></g>
<g><path style="opacity:1" fill="#e6deb1" d="M 630.5,48.5 C 637.306,49.1946 643.973,50.5279 650.5,52.5C 651.171,53.8471 651.171,55.0138 650.5,56C 651.672,56.4186 652.672,57.0853 653.5,58C 652.371,62.0785 652.204,66.2452 653,70.5C 654.163,83.6437 656.163,96.6437 659,109.5C 661.235,141.083 663.902,172.417 667,203.5C 668.246,208.317 669.413,213.151 670.5,218C 670.813,223.866 670.48,229.533 669.5,235C 670.468,249.441 672.468,263.774 675.5,278C 674.7,279.788 674.366,281.455 674.5,283C 677.039,312.93 679.706,342.93 682.5,373C 682.356,376.355 682.023,379.355 681.5,382C 684.19,419.018 687.19,456.018 690.5,493C 689.892,494.231 689.559,495.564 689.5,497C 691.514,526.991 693.514,556.658 695.5,586C 694.978,586.561 694.645,587.228 694.5,588C 695.297,597.799 695.797,607.632 696,617.5C 696.341,623.411 697.174,629.244 698.5,635C 697.898,638.126 697.565,641.293 697.5,644.5C 697.835,658.898 698.835,673.231 700.5,687.5C 698.705,695.72 699.705,703.554 703.5,711C 701.854,712.555 701.521,714.221 702.5,716C 700.061,716.533 699.395,717.7 700.5,719.5C 694.753,724.907 688.42,729.573 681.5,733.5C 680.325,730.991 680.325,728.491 681.5,726C 677.805,714.971 676.805,703.637 678.5,692C 677.854,685.82 677.187,679.653 676.5,673.5C 676.403,663.194 676.403,652.861 676.5,642.5C 673.902,619.919 672.569,597.086 672.5,574C 671.752,567.725 671.085,561.392 670.5,555C 671.247,553.134 671.581,551.467 671.5,550C 670.833,545 670.167,540 669.5,535C 670.122,533.431 670.456,531.764 670.5,530C 669.187,519.174 668.187,508.507 667.5,498C 668.852,487.773 668.185,477.607 665.5,467.5C 665.401,463.926 665.734,460.259 666.5,456.5C 665.122,451.605 664.289,446.605 664,441.5C 661.001,389.506 657.335,337.173 653,284.5C 649.947,261.616 647.447,238.449 645.5,215C 646.116,213.6 646.449,212.1 646.5,210.5C 644.82,197.239 642.82,184.072 640.5,171C 640.5,162.667 640.5,154.333 640.5,146C 639.51,142.241 638.677,138.407 638,134.5C 635.437,106.398 632.27,78.3976 628.5,50.5C 629.243,49.8182 629.909,49.1515 630.5,48.5 Z"/></g>
<g><path style="opacity:1" fill="#e9e2b8" d="M 650.5,52.5 C 657.231,54.4046 663.564,57.0713 669.5,60.5C 670.072,62.2554 670.906,63.9221 672,65.5C 672.333,65.1667 672.667,64.8333 673,64.5C 674.666,68.7288 674.832,73.0622 673.5,77.5C 675.333,92.8392 677.167,108.172 679,123.5C 679.236,129.038 679.736,134.538 680.5,140C 680.355,140.772 680.022,141.439 679.5,142C 680.167,144.333 680.833,146.667 681.5,149C 681.536,155.624 681.536,162.291 681.5,169C 686.608,201.345 690.274,233.845 692.5,266.5C 695.455,302.852 698.455,339.352 701.5,376C 700.643,379.378 700.976,383.045 702.5,387C 703.085,398.84 703.085,410.174 702.5,421C 703.87,427.048 704.703,433.214 705,439.5C 706.632,471.157 708.799,502.491 711.5,533.5C 710.905,537.302 710.572,541.136 710.5,545C 713.612,591.462 716.112,637.962 718,684.5C 718.516,687.034 719.683,689.2 721.5,691C 720.624,692.586 719.624,694.086 718.5,695.5C 718.07,697.38 718.07,699.38 718.5,701.5C 713.5,708.5 707.5,714.5 700.5,719.5C 699.395,717.7 700.061,716.533 702.5,716C 701.521,714.221 701.854,712.555 703.5,711C 699.705,703.554 698.705,695.72 700.5,687.5C 698.835,673.231 697.835,658.898 697.5,644.5C 697.565,641.293 697.898,638.126 698.5,635C 697.174,629.244 696.341,623.411 696,617.5C 695.797,607.632 695.297,597.799 694.5,588C 694.645,587.228 694.978,586.561 695.5,586C 693.514,556.658 691.514,526.991 689.5,497C 689.559,495.564 689.892,494.231 690.5,493C 687.19,456.018 684.19,419.018 681.5,382C 682.023,379.355 682.356,376.355 682.5,373C 679.706,342.93 677.039,312.93 674.5,283C 674.366,281.455 674.7,279.788 675.5,278C 672.468,263.774 670.468,249.441 669.5,235C 670.48,229.533 670.813,223.866 670.5,218C 669.413,213.151 668.246,208.317 667,203.5C 663.902,172.417 661.235,141.083 659,109.5C 656.163,96.6437 654.163,83.6437 653,70.5C 652.204,66.2452 652.371,62.0785 653.5,58C 652.672,57.0853 651.672,56.4186 650.5,56C 651.171,55.0138 651.171,53.8471 650.5,52.5 Z"/></g>
<g><path style="opacity:1" fill="#b4a97b" d="M 128.5,58.5 C 125.896,61.772 123.23,64.272 120.5,66C 122.25,67.7542 122.917,69.9208 122.5,72.5C 124.39,72.7035 125.89,72.0368 127,70.5C 127.772,71.8491 128.939,72.6824 130.5,73C 128.186,74.3983 125.853,74.565 123.5,73.5C 122.208,76.4107 123.208,78.2441 126.5,79C 126.788,82.9288 126.288,86.7621 125,90.5C 126.084,91.6651 126.917,92.9984 127.5,94.5C 128.325,95.3857 129.325,95.719 130.5,95.5C 130.966,97.2012 130.966,98.7012 130.5,100C 131.428,100.388 132.095,101.055 132.5,102C 131.873,104.135 131.373,106.302 131,108.5C 130.333,109.833 129.667,109.833 129,108.5C 128.383,111.035 128.883,113.368 130.5,115.5C 128.879,118.464 129.712,120.464 133,121.5C 133.273,123.101 133.773,124.601 134.5,126C 133.773,127.399 133.273,128.899 133,130.5C 131.527,130.132 130.027,130.632 128.5,132C 129.623,133.044 130.956,133.71 132.5,134C 130.423,134.192 128.423,134.692 126.5,135.5C 125.482,136.852 124.149,137.852 122.5,138.5C 123.242,140.35 124.242,141.016 125.5,140.5C 124.5,141.333 123.5,142.167 122.5,143C 123.167,143.333 123.833,143.667 124.5,144C 125.088,146.195 124.421,148.195 122.5,150C 122.966,152.186 123.299,154.352 123.5,156.5C 121.723,157.901 120.056,159.401 118.5,161C 121.034,162.734 122.534,164.9 123,167.5C 122.577,166.044 121.744,165.544 120.5,166C 121.833,166.667 121.833,167.333 120.5,168C 122.301,168.317 122.634,168.984 121.5,170C 122,170.5 122.5,171 123,171.5C 123.333,174.5 123.667,177.5 124,180.5C 126.011,184.002 127.344,184.002 128,180.5C 128.317,182.301 128.984,182.634 130,181.5C 131.066,183.099 132.566,184.099 134.5,184.5C 135.594,185.868 135.26,187.035 133.5,188C 137.852,188.419 138.185,189.086 134.5,190C 135.833,190.333 137.167,190.667 138.5,191C 137.977,192.614 136.644,194.114 134.5,195.5C 135.249,200.751 135.249,206.084 134.5,211.5C 136.991,212.541 136.991,213.374 134.5,214C 134.848,216.508 134.181,219.008 132.5,221.5C 131.726,222.711 130.893,222.711 130,221.5C 128.255,223.749 126.088,225.416 123.5,226.5C 124.167,226.833 124.833,227.167 125.5,227.5C 124.758,229.35 123.758,230.016 122.5,229.5C 126.481,230.494 126.481,231.494 122.5,232.5C 121.369,234.074 121.202,235.741 122,237.5C 124.072,237.258 126.239,237.591 128.5,238.5C 128.238,239.978 128.571,241.311 129.5,242.5C 130.675,241.145 131.675,241.312 132.5,243C 131.483,244.049 131.316,245.216 132,246.5C 132.914,245.346 133.747,245.513 134.5,247C 133.552,247.483 132.552,247.649 131.5,247.5C 131.652,251.468 130.652,255.135 128.5,258.5C 126.435,258.262 124.435,258.762 122.5,260C 124.045,262.085 124.378,264.252 123.5,266.5C 125.138,267.705 125.471,269.038 124.5,270.5C 125.376,271.251 126.376,271.751 127.5,272C 125.122,272.974 125.456,273.641 128.5,274C 124.728,275.389 124.728,276.389 128.5,277C 127.167,278.84 127.334,279.34 129,278.5C 129.783,280.433 129.283,281.933 127.5,283C 128.5,283.333 129.5,283.667 130.5,284C 127.751,284.606 125.251,285.106 123,285.5C 122.667,284.833 122.333,284.167 122,283.5C 120.055,285.181 118.055,285.848 116,285.5C 114.749,288.816 113.082,289.15 111,286.5C 110.517,287.448 110.351,288.448 110.5,289.5C 113.205,289.38 113.872,290.38 112.5,292.5C 110.955,293.452 109.288,293.785 107.5,293.5C 107.498,295.831 108.331,297.831 110,299.5C 110.718,298.549 111.551,298.383 112.5,299C 111.095,300.269 109.429,300.769 107.5,300.5C 107.988,303.711 107.321,306.544 105.5,309C 108.028,309.669 108.028,310.502 105.5,311.5C 104.833,311.167 104.167,310.833 103.5,310.5C 102.719,311.729 102.219,313.062 102,314.5C 100.853,313.542 99.8525,313.875 99,315.5C 98.8762,317.936 99.3762,320.269 100.5,322.5C 98.8967,322.312 97.5634,322.812 96.5,324C 98.603,327.257 100.603,330.591 102.5,334C 101.452,336.2 99.9517,336.7 98,335.5C 97.3333,336.833 97.3333,338.167 98,339.5C 98.6543,338.304 99.1543,338.304 99.5,339.5C 96.6824,340.881 95.1824,339.881 95,336.5C 94,337.833 93,337.833 92,336.5C 90.1599,338.165 89.4932,340.165 90,342.5C 91.2433,341.664 92.4099,341.997 93.5,343.5C 92.45,345.102 93.1167,345.935 95.5,346C 94.0196,348.668 92.5196,348.835 91,346.5C 90.5,347 90,347.5 89.5,348C 90.8333,348.667 90.8333,349.333 89.5,350C 93.7287,351.287 95.2287,354.12 94,358.5C 93,358.167 92,357.833 91,357.5C 89.4001,361.467 87.9001,365.467 86.5,369.5C 85.5713,368.311 85.238,366.978 85.5,365.5C 83.0421,366.623 80.8754,366.623 79,365.5C 78.5172,366.448 78.3505,367.448 78.5,368.5C 76.2075,368.244 74.0408,368.577 72,369.5C 70.9563,368.377 70.2896,367.044 70,365.5C 69.5065,367.134 69.3398,368.801 69.5,370.5C 71.924,370.192 74.2573,370.526 76.5,371.5C 74.7041,371.269 72.8708,371.935 71,373.5C 70.6667,373.167 70.3333,372.833 70,372.5C 69.8236,375.882 69.3236,379.215 68.5,382.5C 67.7492,381.624 67.2492,380.624 67,379.5C 66.2249,381.223 64.8916,382.223 63,382.5C 60.3513,383.765 57.6847,383.765 55,382.5C 54.5,382.667 54,382.833 53.5,383C 54.6405,383.741 54.6405,384.575 53.5,385.5C 48.7084,388.592 46.3751,387.092 46.5,381C 46.6448,380.228 46.9781,379.561 47.5,379C 46.7117,375.924 46.2117,372.758 46,369.5C 45.1933,456.509 45.3599,543.509 46.5,630.5C 46.1667,630.5 45.8333,630.5 45.5,630.5C 44.8005,626.202 44.4672,621.869 44.5,617.5C 44.3333,468.833 44.5,320.166 45,171.5C 47.2547,157.813 50.7547,144.48 55.5,131.5C 69.2963,103.534 89.2963,81.0341 115.5,64C 119.855,62.1542 124.188,60.3209 128.5,58.5 Z"/></g>
<g><path style="opacity:1" fill="#ebe5be" d="M 669.5,60.5 C 677.447,63.4715 684.78,67.4715 691.5,72.5C 691.966,74.2012 691.966,75.7012 691.5,77C 692.793,77.49 694.127,77.6567 695.5,77.5C 695.318,79.5914 695.652,81.5914 696.5,83.5C 693.902,92.7598 694.235,101.926 697.5,111C 697.548,116.29 697.548,121.624 697.5,127C 698.063,129.727 698.73,132.393 699.5,135C 699.167,135.333 698.833,135.667 698.5,136C 700.752,151.538 702.752,166.871 704.5,182C 704.167,182.333 703.833,182.667 703.5,183C 705.179,185.972 705.512,188.639 704.5,191C 707.947,224.008 711.281,257.175 714.5,290.5C 714.435,293.304 714.102,295.804 713.5,298C 715.857,307.486 716.523,316.819 715.5,326C 717.737,353.62 720.07,381.287 722.5,409C 721.624,413.096 721.291,417.096 721.5,421C 722.83,428.293 723.83,435.627 724.5,443C 724.167,443.333 723.833,443.667 723.5,444C 724.565,454.132 725.565,464.298 726.5,474.5C 726.167,475.167 725.833,475.833 725.5,476.5C 726.194,481.319 726.86,486.152 727.5,491C 727.355,491.772 727.022,492.439 726.5,493C 727.5,498.667 728.5,504.333 729.5,510C 729.131,514.347 728.798,519.347 728.5,525C 728.565,527.591 729.065,530.091 730,532.5C 731.387,572.235 733.054,611.902 735,651.5C 738.123,655.234 738.956,659.4 737.5,664C 737.905,664.945 738.572,665.612 739.5,666C 736.635,667.55 735.968,669.717 737.5,672.5C 732.904,683.372 726.571,693.039 718.5,701.5C 718.07,699.38 718.07,697.38 718.5,695.5C 719.624,694.086 720.624,692.586 721.5,691C 719.683,689.2 718.516,687.034 718,684.5C 716.112,637.962 713.612,591.462 710.5,545C 710.572,541.136 710.905,537.302 711.5,533.5C 708.799,502.491 706.632,471.157 705,439.5C 704.703,433.214 703.87,427.048 702.5,421C 703.085,410.174 703.085,398.84 702.5,387C 700.976,383.045 700.643,379.378 701.5,376C 698.455,339.352 695.455,302.852 692.5,266.5C 690.274,233.845 686.608,201.345 681.5,169C 681.536,162.291 681.536,155.624 681.5,149C 680.833,146.667 680.167,144.333 679.5,142C 680.022,141.439 680.355,140.772 680.5,140C 679.736,134.538 679.236,129.038 679,123.5C 677.167,108.172 675.333,92.8392 673.5,77.5C 674.832,73.0622 674.666,68.7288 673,64.5C 672.667,64.8333 672.333,65.1667 672,65.5C 670.906,63.9221 670.072,62.2554 669.5,60.5 Z"/></g>
<g><path style="opacity:1" fill="#908865" d="M 131.5,53.5 C 131.223,55.7281 130.223,57.3947 128.5,58.5C 124.188,60.3209 119.855,62.1542 115.5,64C 89.2963,81.0341 69.2963,103.534 55.5,131.5C 54.6851,132.429 53.8518,133.429 53,134.5C 52.6012,134.272 52.4346,133.938 52.5,133.5C 68.0807,96.2524 94.414,69.5858 131.5,53.5 Z"/></g>
<g><path style="opacity:1" fill="#6a644f" d="M 684.5,62.5 C 686.404,62.7376 687.738,63.7376 688.5,65.5C 686.596,65.2624 685.262,64.2624 684.5,62.5 Z"/></g>
<g><path style="opacity:1" fill="#8f8768" d="M 688.5,65.5 C 690.027,65.427 691.027,66.0937 691.5,67.5C 689.973,67.573 688.973,66.9063 688.5,65.5 Z"/></g>
<g><path style="opacity:1" fill="#8d8465" d="M 691.5,67.5 C 693.404,67.7376 694.738,68.7376 695.5,70.5C 693.596,70.2624 692.262,69.2624 691.5,67.5 Z"/></g>
<g><path style="opacity:1" fill="#eee8c4" d="M 691.5,72.5 C 699.757,78.0871 707.09,84.7538 713.5,92.5C 713.389,93.1174 713.056,93.6174 712.5,94C 714.984,98.4656 717.651,102.799 720.5,107C 718.926,108.826 718.093,110.993 718,113.5C 717.28,126.591 718.447,139.758 721.5,153C 721.167,153.333 720.833,153.667 720.5,154C 724.295,196.079 728.628,238.413 733.5,281C 733.167,282 732.833,283 732.5,284C 735.138,321.739 738.138,359.239 741.5,396.5C 740.564,401.033 741.064,405.7 743,410.5C 743.238,414.222 743.738,417.889 744.5,421.5C 743.937,422.939 743.603,424.439 743.5,426C 746.747,439.13 747.747,452.13 746.5,465C 747.7,469.391 748.534,473.891 749,478.5C 749.866,516.304 750.199,553.97 750,591.5C 750.333,586.833 750.667,582.167 751,577.5C 750.879,592.692 751.045,608.025 751.5,623.5C 750.351,640.955 745.685,657.289 737.5,672.5C 735.968,669.717 736.635,667.55 739.5,666C 738.572,665.612 737.905,664.945 737.5,664C 738.956,659.4 738.123,655.234 735,651.5C 733.054,611.902 731.387,572.235 730,532.5C 729.065,530.091 728.565,527.591 728.5,525C 728.798,519.347 729.131,514.347 729.5,510C 728.5,504.333 727.5,498.667 726.5,493C 727.022,492.439 727.355,491.772 727.5,491C 726.86,486.152 726.194,481.319 725.5,476.5C 725.833,475.833 726.167,475.167 726.5,474.5C 725.565,464.298 724.565,454.132 723.5,444C 723.833,443.667 724.167,443.333 724.5,443C 723.83,435.627 722.83,428.293 721.5,421C 721.291,417.096 721.624,413.096 722.5,409C 720.07,381.287 717.737,353.62 715.5,326C 716.523,316.819 715.857,307.486 713.5,298C 714.102,295.804 714.435,293.304 714.5,290.5C 711.281,257.175 707.947,224.008 704.5,191C 705.512,188.639 705.179,185.972 703.5,183C 703.833,182.667 704.167,182.333 704.5,182C 702.752,166.871 700.752,151.538 698.5,136C 698.833,135.667 699.167,135.333 699.5,135C 698.73,132.393 698.063,129.727 697.5,127C 697.548,121.624 697.548,116.29 697.5,111C 694.235,101.926 693.902,92.7598 696.5,83.5C 695.652,81.5914 695.318,79.5914 695.5,77.5C 694.127,77.6567 692.793,77.49 691.5,77C 691.966,75.7012 691.966,74.2012 691.5,72.5 Z"/></g>
<g><path style="opacity:1" fill="#f1ecca" d="M 713.5,92.5 C 735.414,115.334 748.248,142.668 752,174.5C 752.833,324.334 752.666,474.001 751.5,623.5C 751.045,608.025 750.879,592.692 751,577.5C 750.667,582.167 750.333,586.833 750,591.5C 750.199,553.97 749.866,516.304 749,478.5C 748.534,473.891 747.7,469.391 746.5,465C 747.747,452.13 746.747,439.13 743.5,426C 743.603,424.439 743.937,422.939 744.5,421.5C 743.738,417.889 743.238,414.222 743,410.5C 741.064,405.7 740.564,401.033 741.5,396.5C 738.138,359.239 735.138,321.739 732.5,284C 732.833,283 733.167,282 733.5,281C 728.628,238.413 724.295,196.079 720.5,154C 720.833,153.667 721.167,153.333 721.5,153C 718.447,139.758 717.28,126.591 718,113.5C 718.093,110.993 718.926,108.826 720.5,107C 717.651,102.799 714.984,98.4656 712.5,94C 713.056,93.6174 713.389,93.1174 713.5,92.5 Z"/></g>
<g><path style="opacity:1" fill="#877f60" d="M 695.5,70.5 C 723.318,90.1901 742.152,116.523 752,149.5C 754.259,158.053 755.759,166.72 756.5,175.5C 755.833,174.167 755.167,172.833 754.5,171.5C 747.939,130.028 728.273,96.361 695.5,70.5 Z"/></g>
<g><path style="opacity:1" fill="#7c7558" d="M 55.5,131.5 C 50.7547,144.48 47.2547,157.813 45,171.5C 44.5,320.166 44.3333,468.833 44.5,617.5C 43.6669,472.001 43.1669,326.334 43,180.5C 42.8331,328.334 42.3331,476.001 41.5,623.5C 40.344,475.179 40.1774,326.846 41,178.5C 42.1985,162.704 46.0318,147.704 52.5,133.5C 52.4346,133.938 52.6012,134.272 53,134.5C 53.8518,133.429 54.6851,132.429 55.5,131.5 Z"/></g>
<g><path style="opacity:1" fill="#e1c269" d="M 412.5,158.5 C 415.5,159.167 418.5,159.833 421.5,160.5C 419.167,160.5 416.833,160.5 414.5,160.5C 379.453,158.602 345.453,163.602 312.5,175.5C 334.852,165.997 358.185,160.497 382.5,159C 392.494,158.5 402.494,158.334 412.5,158.5 Z"/></g>
<g><path style="opacity:1" fill="#cfb164" d="M 414.5,160.5 C 416.833,160.5 419.167,160.5 421.5,160.5C 453.884,162.853 484.217,171.853 512.5,187.5C 511.833,187.5 511.167,187.5 510.5,187.5C 495.668,180.189 480.334,174.022 464.5,169C 447.85,165.173 431.184,162.34 414.5,160.5 Z"/></g>
<g><path style="opacity:1" fill="#dcd19e" d="M 376.5,156.5 C 392.206,156.118 407.872,156.618 423.5,158C 419.848,158.499 416.182,158.665 412.5,158.5C 402.494,158.334 392.494,158.5 382.5,159C 358.185,160.497 334.852,165.997 312.5,175.5C 303.009,178.775 293.675,182.441 284.5,186.5C 290.979,182.759 297.646,179.259 304.5,176C 303.906,175.536 303.239,175.369 302.5,175.5C 325.914,164.812 350.581,158.479 376.5,156.5 Z"/></g>
<g><path style="opacity:1" fill="#8d8563" d="M 754.5,171.5 C 755.167,172.833 755.833,174.167 756.5,175.5C 757.666,322.999 757.833,470.666 757,618.5C 754.541,641.356 748.041,662.689 737.5,682.5C 738.038,680.883 738.371,679.216 738.5,677.5C 747.958,658.621 753.458,638.621 755,617.5C 755.818,468.824 755.651,320.158 754.5,171.5 Z"/></g>
<g><path style="opacity:1" fill="#f2edcd" d="M 302.5,175.5 C 303.239,175.369 303.906,175.536 304.5,176C 297.646,179.259 290.979,182.759 284.5,186.5C 277.31,190.259 270.31,194.259 263.5,198.5C 263.5,197.833 263.167,197.5 262.5,197.5C 263.945,195.937 265.611,194.604 267.5,193.5C 276.367,187.633 285.701,182.633 295.5,178.5C 297.713,177.227 300.046,176.227 302.5,175.5 Z"/></g>
<g><path style="opacity:1" fill="#d7c589" d="M 312.5,175.5 C 302.032,180.564 291.366,185.397 280.5,190C 266.052,199.213 252.385,209.38 239.5,220.5C 238.761,220.369 238.094,220.536 237.5,221C 227.902,230.093 218.902,239.593 210.5,249.5C 218.154,238.333 227.154,228.167 237.5,219C 246.353,212.303 255.02,205.47 263.5,198.5C 270.31,194.259 277.31,190.259 284.5,186.5C 293.675,182.441 303.009,178.775 312.5,175.5 Z"/></g>
<g><path style="opacity:1" fill="#8c825d" d="M 607.5,276.5 C 599.089,264.693 590.422,253.027 581.5,241.5C 581.435,241.062 581.601,240.728 582,240.5C 592.24,251.329 600.74,263.329 607.5,276.5 Z"/></g>
<g><path style="opacity:1" fill="#b3a87a" d="M 529.5,193.5 C 537.204,197.692 544.538,202.525 551.5,208C 558.038,214.042 564.705,219.875 571.5,225.5C 586.443,240.757 599.443,257.423 610.5,275.5C 617.81,290.448 624.81,305.448 631.5,320.5C 635.908,335.208 638.908,350.208 640.5,365.5C 636.019,342.548 629.185,320.215 620,298.5C 616.565,290.616 612.398,283.283 607.5,276.5C 600.74,263.329 592.24,251.329 582,240.5C 581.601,240.728 581.435,241.062 581.5,241.5C 575.397,234.895 569.063,228.395 562.5,222C 555.31,216.302 548.31,210.469 541.5,204.5C 541.938,204.565 542.272,204.399 542.5,204C 538.097,200.481 533.763,196.981 529.5,193.5 Z"/></g>
<g><path style="opacity:1" fill="#fdfbf1" d="M 262.5,197.5 C 263.167,197.5 263.5,197.833 263.5,198.5C 255.02,205.47 246.353,212.303 237.5,219C 227.154,228.167 218.154,238.333 210.5,249.5C 175.235,292.61 157.569,342.277 157.5,398.5C 156.93,437.215 165.597,473.548 183.5,507.5C 197.07,535.072 215.403,559.239 238.5,580C 244.784,585.464 251.45,590.297 258.5,594.5C 261.803,598.156 265.803,600.822 270.5,602.5C 273.494,605 276.827,607 280.5,608.5C 285.903,612.535 291.903,615.535 298.5,617.5C 301.088,619.592 304.088,620.925 307.5,621.5C 313.105,624.479 319.105,626.479 325.5,627.5C 327.292,628.309 329.292,628.809 331.5,629C 327.782,631.298 323.782,631.965 319.5,631C 311.362,628.095 303.362,624.928 295.5,621.5C 212.531,579.637 165.697,512.304 155,419.5C 150.259,337.187 178.426,268.687 239.5,214C 246.843,208 254.51,202.5 262.5,197.5 Z"/></g>
<g><path style="opacity:1" fill="#bdb181" d="M 311.5,273.5 C 320.457,278.623 329.291,283.957 338,289.5C 339.03,289.164 339.53,288.497 339.5,287.5C 340.496,287.414 341.329,287.748 342,288.5C 352.897,285.324 364.064,283.658 375.5,283.5C 377.969,284.317 380.635,284.817 383.5,285C 382.572,285.388 381.905,286.055 381.5,287C 382.72,294.729 384.553,302.563 387,310.5C 388.626,320.888 389.793,331.221 390.5,341.5C 390.06,343.765 389.394,345.932 388.5,348C 390.377,351.373 390.71,355.206 389.5,359.5C 390.591,364.645 391.924,369.645 393.5,374.5C 393.578,377.979 393.245,381.479 392.5,385C 394.005,388.022 394.672,391.022 394.5,394C 393.833,396 393.167,398 392.5,400C 393.167,400.333 393.833,400.667 394.5,401C 393.158,409.124 394.491,417.124 398.5,425C 397.167,426.333 397.167,427.667 398.5,429C 397.833,429.667 397.167,430.333 396.5,431C 399.167,432.333 399.167,433.667 396.5,435C 396.912,437.205 396.912,439.538 396.5,442C 397.656,444.633 398.656,447.3 399.5,450C 399.167,453.667 398.833,457.333 398.5,461C 399.749,465.239 400.749,469.573 401.5,474C 401.645,483.231 401.645,492.565 401.5,502C 403.159,504.93 403.492,507.93 402.5,511C 403.825,515.937 404.825,520.937 405.5,526C 405.239,528.073 405.239,530.073 405.5,532C 403.269,534.197 403.269,536.53 405.5,539C 404.685,542.245 404.352,545.412 404.5,548.5C 405.128,550.258 406.128,551.758 407.5,553C 405.542,555.849 404.875,558.849 405.5,562C 406.82,567.617 408.154,573.451 409.5,579.5C 409.154,583.432 408.487,587.265 407.5,591C 408.278,595.6 409.278,600.266 410.5,605C 409.74,606.441 409.074,607.941 408.5,609.5C 409.451,613.157 409.451,616.991 408.5,621C 409.957,624.194 410.957,627.527 411.5,631C 409.549,634.243 408.883,637.577 409.5,641C 409.647,645.784 410.98,650.118 413.5,654C 413.403,656.616 413.069,659.449 412.5,662.5C 412.326,664.693 412.993,666.527 414.5,668C 412.201,670.535 412.201,673.202 414.5,676C 413.185,677.395 413.519,678.395 415.5,679C 415.136,685.514 415.136,692.181 415.5,699C 416.656,701.633 417.656,704.3 418.5,707C 416.768,712.791 415.435,718.957 414.5,725.5C 414.776,728.362 414.776,731.195 414.5,734C 417.881,738.203 419.214,742.87 418.5,748C 421.018,749.81 421.018,751.643 418.5,753.5C 382.5,753.5 346.5,753.5 310.5,753.5C 311.6,752.442 312.934,751.608 314.5,751C 313.207,750.51 311.873,750.343 310.5,750.5C 310.258,745.523 309.591,740.357 308.5,735C 309.64,733.027 310.973,731.193 312.5,729.5C 309.321,725.771 307.821,721.437 308,716.5C 306.839,715.005 305.673,713.505 304.5,712C 305.506,710.662 306.506,709.329 307.5,708C 307.167,707.667 306.833,707.333 306.5,707C 307.128,704.2 308.128,701.533 309.5,699C 309.076,696.303 309.076,693.303 309.5,690C 306.567,687.616 306.234,684.616 308.5,681C 307.788,677.944 307.454,674.777 307.5,671.5C 307.977,670.522 308.643,669.689 309.5,669C 306.395,664.457 304.728,659.457 304.5,654C 305.833,649.333 305.833,644.667 304.5,640C 309.108,635.039 308.441,631.039 302.5,628C 303.5,627.667 304.5,627.333 305.5,627C 303.335,625.436 301.668,625.603 300.5,627.5C 299.029,625.217 297.362,623.217 295.5,621.5C 303.362,624.928 311.362,628.095 319.5,631C 323.782,631.965 327.782,631.298 331.5,629C 329.292,628.809 327.292,628.309 325.5,627.5C 327.5,627.5 329.5,627.5 331.5,627.5C 334.108,627.6 336.442,626.933 338.5,625.5C 340.61,624.547 341.777,622.881 342,620.5C 342.829,602.995 342.662,585.662 341.5,568.5C 335.536,569.497 329.536,570.497 323.5,571.5C 311.738,571.966 300.071,571.3 288.5,569.5C 285.515,568.674 282.849,567.341 280.5,565.5C 286.196,567.23 292.03,568.23 298,568.5C 301.903,568.485 305.736,567.985 309.5,567C 306.833,566.667 304.167,566.333 301.5,566C 302.701,565.097 303.535,563.931 304,562.5C 304.457,559.204 305.291,556.037 306.5,553C 302.623,551.568 299.289,549.402 296.5,546.5C 307.396,548.389 318.063,547.556 328.5,544C 320.531,544.488 312.531,544.488 304.5,544C 301.543,543.721 298.877,542.887 296.5,541.5C 308.5,544.167 320.5,544.167 332.5,541.5C 336.012,541.076 339.345,540.076 342.5,538.5C 344.426,529.893 348.093,521.226 353.5,512.5C 356.791,509.227 360.458,506.393 364.5,504C 359.167,503.667 353.833,503.333 348.5,503C 340.124,501.593 331.791,500.093 323.5,498.5C 317.509,495.332 311.175,492.832 304.5,491C 298.11,487.615 292.11,483.781 286.5,479.5C 293.048,482.107 299.381,485.274 305.5,489C 308.353,490.43 311.353,491.263 314.5,491.5C 314.611,492.117 314.944,492.617 315.5,493C 325.272,496.28 335.272,497.946 345.5,498C 339.098,496.989 332.765,495.655 326.5,494C 328.878,493.489 331.212,492.822 333.5,492C 332.317,489.845 332.65,487.845 334.5,486C 333.149,480.266 331.482,474.6 329.5,469C 331.516,458.529 330.183,448.529 325.5,439C 325.322,434.707 325.989,430.373 327.5,426C 326.782,423.539 326.115,421.039 325.5,418.5C 326.455,413.019 326.455,408.019 325.5,403.5C 327.17,401.659 328.17,399.492 328.5,397C 326.539,390.849 324.539,384.683 322.5,378.5C 322.623,376.622 322.623,374.789 322.5,373C 323.167,372.667 323.833,372.333 324.5,372C 322.793,369.561 321.459,366.895 320.5,364C 325.097,355.31 324.43,346.81 318.5,338.5C 318.86,335.731 319.526,332.731 320.5,329.5C 319.726,325.5 318.392,321.833 316.5,318.5C 318.004,314.352 317.671,310.352 315.5,306.5C 316.896,305.148 317.563,303.481 317.5,301.5C 316.773,294.187 316.273,286.853 316,279.5C 314.927,280.28 313.76,280.113 312.5,279C 313.634,277.984 313.301,277.317 311.5,277C 312.171,276.014 312.171,274.847 311.5,273.5 Z"/></g>
<g><path style="opacity:1" fill="#c2b785" d="M 453.5,288.5 C 456.039,289.907 455.706,291.073 452.5,292C 454.196,297.685 455.53,303.518 456.5,309.5C 456.635,314.216 456.302,318.383 455.5,322C 456.056,324.237 457.056,326.237 458.5,328C 458.167,328.333 457.833,328.667 457.5,329C 458.884,334.941 459.884,340.941 460.5,347C 459.903,348.062 459.57,349.228 459.5,350.5C 461.707,357.69 463.041,364.857 463.5,372C 461.825,380.858 462.491,389.525 465.5,398C 464.507,401.669 464.173,405.502 464.5,409.5C 467.327,432.96 469.66,456.626 471.5,480.5C 471.458,484.595 470.792,488.429 469.5,492C 471.929,492.451 472.096,493.285 470,494.5C 467.821,493.16 467.321,493.493 468.5,495.5C 462.827,496.673 457.16,498.173 451.5,500C 453.167,500.167 454.833,500.333 456.5,500.5C 467.097,499.598 477.431,497.598 487.5,494.5C 474.023,499.532 460.023,502.865 445.5,504.5C 444.5,504.5 443.5,504.5 442.5,504.5C 440.302,504.409 439.969,505.075 441.5,506.5C 439.068,505.25 436.734,503.75 434.5,502C 433.167,501.333 431.833,501.333 430.5,502C 444.362,511.884 451.862,525.384 453,542.5C 453.333,568.5 453.667,594.5 454,620.5C 457.616,631.605 464.782,634.605 475.5,629.5C 472.694,628.832 470.028,628.166 467.5,627.5C 470.518,627.665 473.518,627.498 476.5,627C 482.895,624.462 489.228,621.962 495.5,619.5C 496.5,619.5 497.5,619.5 498.5,619.5C 497.537,620.363 497.537,621.03 498.5,621.5C 504.349,618.568 510.349,616.234 516.5,614.5C 504.674,620.579 492.674,626.412 480.5,632C 480.902,635.811 481.569,639.811 482.5,644C 482.762,652.543 482.429,660.876 481.5,669C 482.231,674.187 483.564,679.187 485.5,684C 485.578,699.743 485.578,715.91 485.5,732.5C 485.808,733.308 486.308,733.975 487,734.5C 487.246,739.372 487.746,744.205 488.5,749C 488.355,749.772 488.022,750.439 487.5,751C 485.833,751.333 484.167,751.667 482.5,752C 485.036,752.186 487.369,752.686 489.5,753.5C 485.958,753.187 482.625,753.521 479.5,754.5C 378.166,754.333 276.833,754.5 175.5,755C 251.313,756.153 327.146,756.653 403,756.5C 475.833,756.333 548.667,756.167 621.5,756C 623.058,755.79 624.391,755.29 625.5,754.5C 626.791,754.737 627.791,754.404 628.5,753.5C 636.299,753.343 643.633,751.677 650.5,748.5C 661.856,746.444 672.19,742.111 681.5,735.5C 705.911,721.422 724.911,702.089 738.5,677.5C 738.371,679.216 738.038,680.883 737.5,682.5C 712.875,725.187 675.875,750.021 626.5,757C 477.517,758.65 328.517,758.983 179.5,758C 172.055,757.231 164.721,756.064 157.5,754.5C 155.432,753.625 153.432,752.459 151.5,751C 148.549,750.904 145.882,750.071 143.5,748.5C 144.167,748.167 144.833,747.833 145.5,747.5C 153.368,749.867 161.368,751.701 169.5,753C 216.499,753.5 263.499,753.667 310.5,753.5C 346.5,753.5 382.5,753.5 418.5,753.5C 423.511,753.666 428.511,753.499 433.5,753C 432.506,749.173 432.506,745.173 433.5,741C 433.268,729.451 431.935,718.118 429.5,707C 430.814,702.57 430.481,698.236 428.5,694C 428.95,692.715 429.617,691.548 430.5,690.5C 430.259,683.959 428.925,677.126 426.5,670C 427.083,664.763 427.417,659.43 427.5,654C 426.785,649.469 425.785,644.969 424.5,640.5C 425.242,628.385 425.576,616.552 425.5,605C 425.435,602.474 424.768,600.141 423.5,598C 424.522,593.603 424.188,589.27 422.5,585C 423.668,571.999 423.668,558.499 422.5,544.5C 422.156,541.964 421.156,539.797 419.5,538C 421.891,537.309 421.891,536.309 419.5,535C 420.034,532.188 420.367,529.022 420.5,525.5C 419.208,514.332 417.875,503.165 416.5,492C 417.767,485.471 417.101,478.804 414.5,472C 415.569,463.93 414.902,455.097 412.5,445.5C 412.68,444.446 413.013,443.446 413.5,442.5C 411.936,440.425 410.936,438.092 410.5,435.5C 411.683,425.8 411.017,415.467 408.5,404.5C 408.709,403.914 409.043,403.414 409.5,403C 408.833,401 408.167,399 407.5,397C 408.668,388.095 408.001,378.762 405.5,369C 406.648,362.622 405.981,356.122 403.5,349.5C 403.75,343.998 404.084,338.498 404.5,333C 402.439,327.85 401.106,322.517 400.5,317C 400.937,314.551 400.937,312.217 400.5,310C 402.553,305.647 402.553,301.147 400.5,296.5C 400.833,293.167 401.167,289.833 401.5,286.5C 401.023,285.522 400.357,284.689 399.5,284C 399.833,283.667 400.167,283.333 400.5,283C 392.088,282.199 383.755,282.366 375.5,283.5C 364.064,283.658 352.897,285.324 342,288.5C 341.329,287.748 340.496,287.414 339.5,287.5C 348.398,284.987 357.398,282.987 366.5,281.5C 395.992,278.617 424.992,280.951 453.5,288.5 Z"/></g>
<g><path style="opacity:1" fill="#c0b583" d="M 418.5,753.5 C 421.018,751.643 421.018,749.81 418.5,748C 419.214,742.87 417.881,738.203 414.5,734C 414.776,731.195 414.776,728.362 414.5,725.5C 415.435,718.957 416.768,712.791 418.5,707C 417.656,704.3 416.656,701.633 415.5,699C 415.136,692.181 415.136,685.514 415.5,679C 413.519,678.395 413.185,677.395 414.5,676C 412.201,673.202 412.201,670.535 414.5,668C 412.993,666.527 412.326,664.693 412.5,662.5C 413.069,659.449 413.403,656.616 413.5,654C 410.98,650.118 409.647,645.784 409.5,641C 408.883,637.577 409.549,634.243 411.5,631C 410.957,627.527 409.957,624.194 408.5,621C 409.451,616.991 409.451,613.157 408.5,609.5C 409.074,607.941 409.74,606.441 410.5,605C 409.278,600.266 408.278,595.6 407.5,591C 408.487,587.265 409.154,583.432 409.5,579.5C 408.154,573.451 406.82,567.617 405.5,562C 404.875,558.849 405.542,555.849 407.5,553C 406.128,551.758 405.128,550.258 404.5,548.5C 404.352,545.412 404.685,542.245 405.5,539C 403.269,536.53 403.269,534.197 405.5,532C 405.239,530.073 405.239,528.073 405.5,526C 404.825,520.937 403.825,515.937 402.5,511C 403.492,507.93 403.159,504.93 401.5,502C 401.645,492.565 401.645,483.231 401.5,474C 400.749,469.573 399.749,465.239 398.5,461C 398.833,457.333 399.167,453.667 399.5,450C 398.656,447.3 397.656,444.633 396.5,442C 396.912,439.538 396.912,437.205 396.5,435C 399.167,433.667 399.167,432.333 396.5,431C 397.167,430.333 397.833,429.667 398.5,429C 397.167,427.667 397.167,426.333 398.5,425C 394.491,417.124 393.158,409.124 394.5,401C 393.833,400.667 393.167,400.333 392.5,400C 393.167,398 393.833,396 394.5,394C 394.672,391.022 394.005,388.022 392.5,385C 393.245,381.479 393.578,377.979 393.5,374.5C 391.924,369.645 390.591,364.645 389.5,359.5C 390.71,355.206 390.377,351.373 388.5,348C 389.394,345.932 390.06,343.765 390.5,341.5C 389.793,331.221 388.626,320.888 387,310.5C 384.553,302.563 382.72,294.729 381.5,287C 381.905,286.055 382.572,285.388 383.5,285C 380.635,284.817 377.969,284.317 375.5,283.5C 383.755,282.366 392.088,282.199 400.5,283C 400.167,283.333 399.833,283.667 399.5,284C 400.357,284.689 401.023,285.522 401.5,286.5C 401.167,289.833 400.833,293.167 400.5,296.5C 402.553,301.147 402.553,305.647 400.5,310C 400.937,312.217 400.937,314.551 400.5,317C 401.106,322.517 402.439,327.85 404.5,333C 404.084,338.498 403.75,343.998 403.5,349.5C 405.981,356.122 406.648,362.622 405.5,369C 408.001,378.762 408.668,388.095 407.5,397C 408.167,399 408.833,401 409.5,403C 409.043,403.414 408.709,403.914 408.5,404.5C 411.017,415.467 411.683,425.8 410.5,435.5C 410.936,438.092 411.936,440.425 413.5,442.5C 413.013,443.446 412.68,444.446 412.5,445.5C 414.902,455.097 415.569,463.93 414.5,472C 417.101,478.804 417.767,485.471 416.5,492C 417.875,503.165 419.208,514.332 420.5,525.5C 420.367,529.022 420.034,532.188 419.5,535C 421.891,536.309 421.891,537.309 419.5,538C 421.156,539.797 422.156,541.964 422.5,544.5C 423.668,558.499 423.668,571.999 422.5,585C 424.188,589.27 424.522,593.603 423.5,598C 424.768,600.141 425.435,602.474 425.5,605C 425.576,616.552 425.242,628.385 424.5,640.5C 425.785,644.969 426.785,649.469 427.5,654C 427.417,659.43 427.083,664.763 426.5,670C 428.925,677.126 430.259,683.959 430.5,690.5C 429.617,691.548 428.95,692.715 428.5,694C 430.481,698.236 430.814,702.57 429.5,707C 431.935,718.118 433.268,729.451 433.5,741C 432.506,745.173 432.506,749.173 433.5,753C 428.511,753.499 423.511,753.666 418.5,753.5 Z"/></g>
<g><path style="opacity:1" fill="#b8a167" d="M 239.5,220.5 C 169.101,288.722 145.601,370.722 169,466.5C 173.706,480.897 179.206,494.897 185.5,508.5C 184.833,508.167 184.167,507.833 183.5,507.5C 165.597,473.548 156.93,437.215 157.5,398.5C 157.569,342.277 175.235,292.61 210.5,249.5C 218.902,239.593 227.902,230.093 237.5,221C 238.094,220.536 238.761,220.369 239.5,220.5 Z"/></g>
<g><path style="opacity:1" fill="#b1ad9d" d="M 414.5,160.5 C 431.184,162.34 447.85,165.173 464.5,169C 480.334,174.022 495.668,180.189 510.5,187.5C 599.115,238.454 641.615,315.454 638,418.5C 629.596,498.497 591.763,560.33 524.5,604C 514.772,609.195 505.105,614.362 495.5,619.5C 489.228,621.962 482.895,624.462 476.5,627C 473.518,627.498 470.518,627.665 467.5,627.5C 466.5,627.5 465.5,627.5 464.5,627.5C 460.623,624.076 458.623,619.743 458.5,614.5C 460.99,616.86 463.99,617.86 467.5,617.5C 488.62,611.941 508.286,603.108 526.5,591C 588.084,547.997 621.918,488.83 628,413.5C 630.492,326.986 596.659,258.819 526.5,209C 491.797,186.599 453.797,174.099 412.5,171.5C 407.177,170.834 401.677,170.501 396,170.5C 387.94,170.307 380.107,170.973 372.5,172.5C 299.372,182.634 242.872,218.634 203,280.5C 162.882,350.453 158.882,422.453 191,496.5C 219.356,554.521 263.856,594.688 324.5,617C 329.957,618.224 334.957,617.391 339.5,614.5C 339.6,620.65 336.933,624.984 331.5,627.5C 329.5,627.5 327.5,627.5 325.5,627.5C 319.105,626.479 313.105,624.479 307.5,621.5C 305.165,618.835 302.165,617.502 298.5,617.5C 291.903,615.535 285.903,612.535 280.5,608.5C 278.075,604.955 274.742,602.955 270.5,602.5C 266.852,599.34 262.852,596.673 258.5,594.5C 228.068,570.943 203.735,542.276 185.5,508.5C 179.206,494.897 173.706,480.897 169,466.5C 145.601,370.722 169.101,288.722 239.5,220.5C 252.385,209.38 266.052,199.213 280.5,190C 291.366,185.397 302.032,180.564 312.5,175.5C 345.453,163.602 379.453,158.602 414.5,160.5 Z"/></g>
<g><path style="opacity:1" fill="#040104" d="M 412.5,171.5 C 453.797,174.099 491.797,186.599 526.5,209C 596.659,258.819 630.492,326.986 628,413.5C 621.918,488.83 588.084,547.997 526.5,591C 508.286,603.108 488.62,611.941 467.5,617.5C 463.99,617.86 460.99,616.86 458.5,614.5C 458.5,604.167 458.5,593.833 458.5,583.5C 458.5,571.833 458.5,560.167 458.5,548.5C 459.063,535.749 456.063,524.082 449.5,513.5C 448.167,510.5 446.833,507.5 445.5,504.5C 460.023,502.865 474.023,499.532 487.5,494.5C 524.592,480.371 545.258,453.371 549.5,413.5C 549.5,412.5 549.5,411.5 549.5,410.5C 555.858,378.456 548.691,349.789 528,324.5C 528.497,319.162 529.33,313.829 530.5,308.5C 531.657,300.01 531.824,291.343 531,282.5C 530.594,279.258 529.761,276.258 528.5,273.5C 528.139,269.085 526.806,265.085 524.5,261.5C 524.5,260.833 524.167,260.5 523.5,260.5C 520.038,259.518 516.371,259.185 512.5,259.5C 506.42,260.099 500.753,261.766 495.5,264.5C 492.294,265.454 489.294,266.787 486.5,268.5C 478.478,272.347 470.811,276.847 463.5,282C 461.35,283.411 459.016,284.245 456.5,284.5C 429.237,277.145 401.57,275.145 373.5,278.5C 365.499,278.666 357.832,279.999 350.5,282.5C 350.167,282.5 349.833,282.5 349.5,282.5C 345.462,282.958 341.462,283.624 337.5,284.5C 322.672,272.611 306.006,264.444 287.5,260C 283.514,259.501 279.514,259.334 275.5,259.5C 274.624,259.369 273.957,259.702 273.5,260.5C 265.079,281.298 264.413,302.298 271.5,323.5C 250,348.145 242.166,376.812 248,409.5C 250.411,429.624 257.244,447.958 268.5,464.5C 270.942,467.729 273.608,470.729 276.5,473.5C 289.28,485.726 304.28,494.059 321.5,498.5C 331.904,501.462 342.57,503.796 353.5,505.5C 349.429,510.975 346.429,516.975 344.5,523.5C 343.326,524.514 342.66,525.847 342.5,527.5C 342.371,529.216 342.038,530.883 341.5,532.5C 327.777,537.986 313.777,538.819 299.5,535C 292.187,531.693 286.02,526.86 281,520.5C 275.969,510.141 268.803,501.641 259.5,495C 251.117,489.997 242.117,488.33 232.5,490C 230.273,490.941 228.273,492.108 226.5,493.5C 225.508,493.328 224.842,493.662 224.5,494.5C 222.727,495.314 222.227,496.648 223,498.5C 228.593,504.096 234.76,508.93 241.5,513C 244.372,515.537 246.872,518.37 249,521.5C 255.624,533.75 261.958,546.083 268,558.5C 275.221,566.194 284.055,570.861 294.5,572.5C 304.124,573.783 313.791,573.783 323.5,572.5C 328.863,572.051 334.196,571.384 339.5,570.5C 339.5,585.167 339.5,599.833 339.5,614.5C 334.957,617.391 329.957,618.224 324.5,617C 263.856,594.688 219.356,554.521 191,496.5C 158.882,422.453 162.882,350.453 203,280.5C 242.872,218.634 299.372,182.634 372.5,172.5C 385.815,171.667 399.149,171.334 412.5,171.5 Z"/></g>
<g><path style="opacity:1" fill="#5e563d" d="M 271.5,275.5 C 269.983,289.881 270.317,304.215 272.5,318.5C 269.509,311.262 268.176,303.596 268.5,295.5C 268.223,288.507 269.223,281.84 271.5,275.5 Z"/></g>
<g><path style="opacity:1" fill="#826e41" d="M 528.5,273.5 C 529.761,276.258 530.594,279.258 531,282.5C 531.824,291.343 531.657,300.01 530.5,308.5C 530.666,300.826 530.5,293.159 530,285.5C 529.79,283.942 529.29,282.609 528.5,281.5C 528.5,281.167 528.5,280.833 528.5,280.5C 528.5,278.167 528.5,275.833 528.5,273.5 Z"/></g>
<g><path style="opacity:1" fill="#846f40" d="M 275.5,259.5 C 275.5,259.833 275.5,260.167 275.5,260.5C 274.167,261.167 274.167,261.833 275.5,262.5C 274.543,267.032 273.21,271.365 271.5,275.5C 269.223,281.84 268.223,288.507 268.5,295.5C 268.176,303.596 269.509,311.262 272.5,318.5C 274.597,319.879 274.93,321.545 273.5,323.5C 272.833,323.5 272.167,323.5 271.5,323.5C 264.413,302.298 265.079,281.298 273.5,260.5C 273.957,259.702 274.624,259.369 275.5,259.5 Z"/></g>
<g><path style="opacity:1" fill="#d4c694" d="M 373.5,278.5 C 370.054,279.687 366.387,280.354 362.5,280.5C 358.582,281.442 354.582,282.108 350.5,282.5C 357.832,279.999 365.499,278.666 373.5,278.5 Z"/></g>
<g><path style="opacity:1" fill="#b4a879" d="M 495.5,264.5 C 495.5,265.167 495.5,265.833 495.5,266.5C 493.897,266.312 492.563,266.812 491.5,268C 492.672,268.353 493.838,268.187 495,267.5C 496.608,267.974 496.774,268.641 495.5,269.5C 483.608,275.278 471.942,281.278 460.5,287.5C 460.5,286.833 460.5,286.167 460.5,285.5C 469.782,280.509 478.449,274.843 486.5,268.5C 489.294,266.787 492.294,265.454 495.5,264.5 Z"/></g>
<g><path style="opacity:1" fill="#a48e58" d="M 486.5,268.5 C 478.449,274.843 469.782,280.509 460.5,285.5C 458.901,285.768 457.568,285.434 456.5,284.5C 459.016,284.245 461.35,283.411 463.5,282C 470.811,276.847 478.478,272.347 486.5,268.5 Z"/></g>
<g><path style="opacity:1" fill="#f2edde" d="M 456.5,284.5 C 457.568,285.434 458.901,285.768 460.5,285.5C 460.5,286.167 460.5,286.833 460.5,287.5C 460.38,288.586 459.713,289.253 458.5,289.5C 456.865,288.954 455.199,288.62 453.5,288.5C 424.992,280.951 395.992,278.617 366.5,281.5C 364.901,281.768 363.568,281.434 362.5,280.5C 366.387,280.354 370.054,279.687 373.5,278.5C 401.57,275.145 429.237,277.145 456.5,284.5 Z"/></g>
<g><path style="opacity:1" fill="#ceba7d" d="M 523.5,260.5 C 524.167,260.5 524.5,260.833 524.5,261.5C 525.256,265.767 526.589,269.767 528.5,273.5C 528.5,275.833 528.5,278.167 528.5,280.5C 526.225,274.068 524.559,267.402 523.5,260.5 Z"/></g>
<g><path style="opacity:1" fill="#cabe8b" d="M 516.5,471.5 C 511.683,475.74 506.683,479.74 501.5,483.5C 491.041,488.892 480.041,492.892 468.5,495.5C 467.321,493.493 467.821,493.16 470,494.5C 472.096,493.285 471.929,492.451 469.5,492C 470.792,488.429 471.458,484.595 471.5,480.5C 469.66,456.626 467.327,432.96 464.5,409.5C 464.173,405.502 464.507,401.669 465.5,398C 462.491,389.525 461.825,380.858 463.5,372C 463.041,364.857 461.707,357.69 459.5,350.5C 459.57,349.228 459.903,348.062 460.5,347C 459.884,340.941 458.884,334.941 457.5,329C 457.833,328.667 458.167,328.333 458.5,328C 457.056,326.237 456.056,324.237 455.5,322C 456.302,318.383 456.635,314.216 456.5,309.5C 455.53,303.518 454.196,297.685 452.5,292C 455.706,291.073 456.039,289.907 453.5,288.5C 455.199,288.62 456.865,288.954 458.5,289.5C 459.713,289.253 460.38,288.586 460.5,287.5C 471.942,281.278 483.608,275.278 495.5,269.5C 496.774,268.641 496.608,267.974 495,267.5C 493.838,268.187 492.672,268.353 491.5,268C 492.563,266.812 493.897,266.312 495.5,266.5C 497.819,265.833 500.153,265.666 502.5,266C 499.45,268.049 497.117,270.716 495.5,274C 499.3,286.385 501.133,299.219 501,312.5C 502.072,315.186 502.239,317.852 501.5,320.5C 503.379,330.567 504.712,340.567 505.5,350.5C 505.77,356.126 505.437,361.626 504.5,367C 507.117,388.385 510.117,409.719 513.5,431C 513.525,435.803 513.525,440.636 513.5,445.5C 514.651,449.423 515.485,453.423 516,457.5C 516.833,459.667 518.333,461.167 520.5,462C 517.198,464.662 515.865,467.829 516.5,471.5 Z"/></g>
<g><path style="opacity:1" fill="#8c7542" d="M 524.5,261.5 C 526.806,265.085 528.139,269.085 528.5,273.5C 526.589,269.767 525.256,265.767 524.5,261.5 Z"/></g>
<g><path style="opacity:1" fill="#cfc38f" d="M 512.5,259.5 C 510.611,260.322 508.611,261.155 506.5,262C 511.184,262.435 515.851,262.935 520.5,263.5C 525.896,278.444 527.396,293.778 525,309.5C 524.116,314.373 522.616,319.04 520.5,323.5C 544.788,351.668 552.288,384.002 543,420.5C 539.389,440.395 530.555,457.395 516.5,471.5C 515.865,467.829 517.198,464.662 520.5,462C 518.333,461.167 516.833,459.667 516,457.5C 515.485,453.423 514.651,449.423 513.5,445.5C 513.525,440.636 513.525,435.803 513.5,431C 510.117,409.719 507.117,388.385 504.5,367C 505.437,361.626 505.77,356.126 505.5,350.5C 504.712,340.567 503.379,330.567 501.5,320.5C 502.239,317.852 502.072,315.186 501,312.5C 501.133,299.219 499.3,286.385 495.5,274C 497.117,270.716 499.45,268.049 502.5,266C 500.153,265.666 497.819,265.833 495.5,266.5C 495.5,265.833 495.5,265.167 495.5,264.5C 500.753,261.766 506.42,260.099 512.5,259.5 Z"/></g>
<g><path style="opacity:1" fill="#baaf7f" d="M 275.5,260.5 C 287.968,263.214 299.968,267.548 311.5,273.5C 312.171,274.847 312.171,276.014 311.5,277C 313.301,277.317 313.634,277.984 312.5,279C 313.76,280.113 314.927,280.28 316,279.5C 316.273,286.853 316.773,294.187 317.5,301.5C 317.563,303.481 316.896,305.148 315.5,306.5C 317.671,310.352 318.004,314.352 316.5,318.5C 318.392,321.833 319.726,325.5 320.5,329.5C 319.526,332.731 318.86,335.731 318.5,338.5C 324.43,346.81 325.097,355.31 320.5,364C 321.459,366.895 322.793,369.561 324.5,372C 323.833,372.333 323.167,372.667 322.5,373C 322.623,374.789 322.623,376.622 322.5,378.5C 324.539,384.683 326.539,390.849 328.5,397C 328.17,399.492 327.17,401.659 325.5,403.5C 326.455,408.019 326.455,413.019 325.5,418.5C 326.115,421.039 326.782,423.539 327.5,426C 325.989,430.373 325.322,434.707 325.5,439C 330.183,448.529 331.516,458.529 329.5,469C 331.482,474.6 333.149,480.266 334.5,486C 332.65,487.845 332.317,489.845 333.5,492C 331.212,492.822 328.878,493.489 326.5,494C 332.765,495.655 339.098,496.989 345.5,498C 335.272,497.946 325.272,496.28 315.5,493C 314.944,492.617 314.611,492.117 314.5,491.5C 309.205,488.896 303.538,485.729 297.5,482C 300.058,480.62 300.058,479.12 297.5,477.5C 300.109,474.115 299.775,470.949 296.5,468C 296.5,466 296.5,464 296.5,462C 296.98,458.317 298.313,454.984 300.5,452C 299.323,449.331 299.323,446.331 300.5,443C 299.964,439.928 298.63,437.261 296.5,435C 297.081,434.107 297.415,433.107 297.5,432C 296.545,426.529 295.879,421.029 295.5,415.5C 294.448,415.649 293.448,415.483 292.5,415C 293.386,413.783 294.386,412.449 295.5,411C 294.643,410.311 293.977,409.478 293.5,408.5C 292.911,406.627 293.578,404.96 295.5,403.5C 295.245,398.727 295.245,394.06 295.5,389.5C 294.975,388.808 294.308,388.308 293.5,388C 294.578,387.326 295.245,386.326 295.5,385C 295.03,380.832 294.03,376.832 292.5,373C 293.265,370.164 292.932,367.33 291.5,364.5C 292.157,361.148 292.157,357.648 291.5,354C 288.833,352.667 288.833,351.333 291.5,350C 287.486,348.015 286.819,345.348 289.5,342C 288.833,341.667 288.167,341.333 287.5,341C 290.76,338.566 290.76,335.899 287.5,333C 288.72,331.475 289.387,329.641 289.5,327.5C 288.961,322.706 288.294,318.206 287.5,314C 288.167,313 288.833,312 289.5,311C 287.342,309.688 287.009,308.022 288.5,306C 287.407,301.35 286.407,296.684 285.5,292C 285.314,290.133 285.647,288.133 286.5,286C 284.966,281.383 284.799,276.883 286,272.5C 286.914,273.654 287.747,273.487 288.5,272C 285.576,271.012 282.576,270.346 279.5,270C 280.38,268.644 280.714,267.144 280.5,265.5C 281.552,265.649 282.552,265.483 283.5,265C 280.518,264.903 277.851,264.07 275.5,262.5C 274.167,261.833 274.167,261.167 275.5,260.5 Z"/></g>
<g><path style="opacity:1" fill="#b8ac7d" d="M 275.5,262.5 C 277.851,264.07 280.518,264.903 283.5,265C 282.552,265.483 281.552,265.649 280.5,265.5C 280.714,267.144 280.38,268.644 279.5,270C 282.576,270.346 285.576,271.012 288.5,272C 287.747,273.487 286.914,273.654 286,272.5C 284.799,276.883 284.966,281.383 286.5,286C 285.647,288.133 285.314,290.133 285.5,292C 286.407,296.684 287.407,301.35 288.5,306C 287.009,308.022 287.342,309.688 289.5,311C 288.833,312 288.167,313 287.5,314C 288.294,318.206 288.961,322.706 289.5,327.5C 289.387,329.641 288.72,331.475 287.5,333C 290.76,335.899 290.76,338.566 287.5,341C 288.167,341.333 288.833,341.667 289.5,342C 286.819,345.348 287.486,348.015 291.5,350C 288.833,351.333 288.833,352.667 291.5,354C 292.157,357.648 292.157,361.148 291.5,364.5C 292.932,367.33 293.265,370.164 292.5,373C 294.03,376.832 295.03,380.832 295.5,385C 295.245,386.326 294.578,387.326 293.5,388C 294.308,388.308 294.975,388.808 295.5,389.5C 295.245,394.06 295.245,398.727 295.5,403.5C 293.578,404.96 292.911,406.627 293.5,408.5C 293.977,409.478 294.643,410.311 295.5,411C 294.386,412.449 293.386,413.783 292.5,415C 293.448,415.483 294.448,415.649 295.5,415.5C 295.879,421.029 296.545,426.529 297.5,432C 297.415,433.107 297.081,434.107 296.5,435C 298.63,437.261 299.964,439.928 300.5,443C 299.323,446.331 299.323,449.331 300.5,452C 298.313,454.984 296.98,458.317 296.5,462C 296.5,464 296.5,466 296.5,468C 299.775,470.949 300.109,474.115 297.5,477.5C 300.058,479.12 300.058,480.62 297.5,482C 303.538,485.729 309.205,488.896 314.5,491.5C 311.353,491.263 308.353,490.43 305.5,489C 299.381,485.274 293.048,482.107 286.5,479.5C 283.681,477.581 281.014,475.415 278.5,473C 277.563,472.308 276.897,472.475 276.5,473.5C 273.608,470.729 270.942,467.729 268.5,464.5C 269.043,464.44 269.376,464.107 269.5,463.5C 268.441,461.466 267.441,459.466 266.5,457.5C 248.959,423.422 245.792,388.089 257,351.5C 261.019,343.449 265.519,335.783 270.5,328.5C 271.075,326.589 272.075,324.922 273.5,323.5C 274.93,321.545 274.597,319.879 272.5,318.5C 270.317,304.215 269.983,289.881 271.5,275.5C 273.21,271.365 274.543,267.032 275.5,262.5 Z"/></g>
<g><path style="opacity:1" fill="#fcfbf0" d="M 512.5,259.5 C 516.371,259.185 520.038,259.518 523.5,260.5C 524.559,267.402 526.225,274.068 528.5,280.5C 528.5,280.833 528.5,281.167 528.5,281.5C 529.441,295.421 528.107,309.087 524.5,322.5C 537.621,337.75 545.621,355.417 548.5,375.5C 548.864,390.561 548.197,405.561 546.5,420.5C 541.651,444.877 529.651,464.877 510.5,480.5C 507.886,481.807 505.22,483.14 502.5,484.5C 501.893,484.376 501.56,484.043 501.5,483.5C 506.683,479.74 511.683,475.74 516.5,471.5C 530.555,457.395 539.389,440.395 543,420.5C 552.288,384.002 544.788,351.668 520.5,323.5C 522.616,319.04 524.116,314.373 525,309.5C 527.396,293.778 525.896,278.444 520.5,263.5C 515.851,262.935 511.184,262.435 506.5,262C 508.611,261.155 510.611,260.322 512.5,259.5 Z"/></g>
<g><path style="opacity:1" fill="#f3eedc" d="M 275.5,259.5 C 279.514,259.334 283.514,259.501 287.5,260C 306.006,264.444 322.672,272.611 337.5,284.5C 341.647,285.356 345.647,284.69 349.5,282.5C 349.833,282.5 350.167,282.5 350.5,282.5C 354.582,282.108 358.582,281.442 362.5,280.5C 363.568,281.434 364.901,281.768 366.5,281.5C 357.398,282.987 348.398,284.987 339.5,287.5C 339.53,288.497 339.03,289.164 338,289.5C 329.291,283.957 320.457,278.623 311.5,273.5C 299.968,267.548 287.968,263.214 275.5,260.5C 275.5,260.167 275.5,259.833 275.5,259.5 Z"/></g>
<g><path style="opacity:1" fill="#c1ad6f" d="M 349.5,282.5 C 345.647,284.69 341.647,285.356 337.5,284.5C 341.462,283.624 345.462,282.958 349.5,282.5 Z"/></g>
<g><path style="opacity:1" fill="#363432" d="M 412.5,171.5 C 399.149,171.334 385.815,171.667 372.5,172.5C 380.107,170.973 387.94,170.307 396,170.5C 401.677,170.501 407.177,170.834 412.5,171.5 Z"/></g>
<g><path style="opacity:1" fill="#b6ab7d" d="M 246.5,46.5 C 247.952,47.3019 249.618,47.8019 251.5,48C 250.5,48.3333 249.5,48.6667 248.5,49C 247.745,51.1331 246.412,52.7998 244.5,54C 244.566,55.739 245.233,57.5723 246.5,59.5C 243.511,63.9629 244.344,67.6296 249,70.5C 249.14,73.9006 248.973,77.0673 248.5,80C 251.109,84.8408 253.109,89.8408 254.5,95C 253.57,96.1939 252.903,97.5272 252.5,99C 252.86,100.652 253.193,102.318 253.5,104C 252.833,104.667 252.167,105.333 251.5,106C 252.167,108 252.833,110 253.5,112C 253.167,112.333 252.833,112.667 252.5,113C 254.605,114.335 255.271,116.002 254.5,118C 255.563,119.188 256.897,119.688 258.5,119.5C 259.69,125.477 261.356,131.31 263.5,137C 263.167,137.333 262.833,137.667 262.5,138C 264.276,139.671 264.61,141.504 263.5,143.5C 265.002,146.668 266.002,150.002 266.5,153.5C 264.627,157.242 265.627,159.576 269.5,160.5C 269.529,167.881 269.196,175.048 268.5,182C 269.967,183.098 270.801,184.598 271,186.5C 272.246,185.228 273.413,184.895 274.5,185.5C 273.273,186.59 272.44,187.924 272,189.5C 270.836,189.835 269.503,189.835 268,189.5C 267.51,190.793 267.343,192.127 267.5,193.5C 265.611,194.604 263.945,195.937 262.5,197.5C 254.51,202.5 246.843,208 239.5,214C 178.426,268.687 150.259,337.187 155,419.5C 165.697,512.304 212.531,579.637 295.5,621.5C 297.362,623.217 299.029,625.217 300.5,627.5C 301.668,625.603 303.335,625.436 305.5,627C 304.5,627.333 303.5,627.667 302.5,628C 308.441,631.039 309.108,635.039 304.5,640C 305.833,644.667 305.833,649.333 304.5,654C 304.728,659.457 306.395,664.457 309.5,669C 308.643,669.689 307.977,670.522 307.5,671.5C 307.454,674.777 307.788,677.944 308.5,681C 306.234,684.616 306.567,687.616 309.5,690C 309.076,693.303 309.076,696.303 309.5,699C 308.128,701.533 307.128,704.2 306.5,707C 306.833,707.333 307.167,707.667 307.5,708C 306.506,709.329 305.506,710.662 304.5,712C 305.673,713.505 306.839,715.005 308,716.5C 307.821,721.437 309.321,725.771 312.5,729.5C 310.973,731.193 309.64,733.027 308.5,735C 309.591,740.357 310.258,745.523 310.5,750.5C 311.873,750.343 313.207,750.51 314.5,751C 312.934,751.608 311.6,752.442 310.5,753.5C 263.499,753.667 216.499,753.5 169.5,753C 161.368,751.701 153.368,749.867 145.5,747.5C 144.833,747.833 144.167,748.167 143.5,748.5C 145.882,750.071 148.549,750.904 151.5,751C 153.432,752.459 155.432,753.625 157.5,754.5C 125.52,747.184 98.8535,731.184 77.5,706.5C 77.6107,705.883 77.944,705.383 78.5,705C 74.8594,698.874 70.8594,693.041 66.5,687.5C 55.4579,670.041 48.7912,651.041 46.5,630.5C 45.3599,543.509 45.1933,456.509 46,369.5C 46.2117,372.758 46.7117,375.924 47.5,379C 46.9781,379.561 46.6448,380.228 46.5,381C 46.3751,387.092 48.7084,388.592 53.5,385.5C 54.6405,384.575 54.6405,383.741 53.5,383C 54,382.833 54.5,382.667 55,382.5C 57.6847,383.765 60.3513,383.765 63,382.5C 64.8916,382.223 66.2249,381.223 67,379.5C 67.2492,380.624 67.7492,381.624 68.5,382.5C 69.3236,379.215 69.8236,375.882 70,372.5C 70.3333,372.833 70.6667,373.167 71,373.5C 72.8708,371.935 74.7041,371.269 76.5,371.5C 74.2573,370.526 71.924,370.192 69.5,370.5C 69.3398,368.801 69.5065,367.134 70,365.5C 70.2896,367.044 70.9563,368.377 72,369.5C 74.0408,368.577 76.2075,368.244 78.5,368.5C 78.3505,367.448 78.5172,366.448 79,365.5C 80.8754,366.623 83.0421,366.623 85.5,365.5C 85.238,366.978 85.5713,368.311 86.5,369.5C 87.9001,365.467 89.4001,361.467 91,357.5C 92,357.833 93,358.167 94,358.5C 95.2287,354.12 93.7287,351.287 89.5,350C 90.8333,349.333 90.8333,348.667 89.5,348C 90,347.5 90.5,347 91,346.5C 92.5196,348.835 94.0196,348.668 95.5,346C 93.1167,345.935 92.45,345.102 93.5,343.5C 92.4099,341.997 91.2433,341.664 90,342.5C 89.4932,340.165 90.1599,338.165 92,336.5C 93,337.833 94,337.833 95,336.5C 95.1824,339.881 96.6824,340.881 99.5,339.5C 99.1543,338.304 98.6543,338.304 98,339.5C 97.3333,338.167 97.3333,336.833 98,335.5C 99.9517,336.7 101.452,336.2 102.5,334C 100.603,330.591 98.603,327.257 96.5,324C 97.5634,322.812 98.8967,322.312 100.5,322.5C 99.3762,320.269 98.8762,317.936 99,315.5C 99.8525,313.875 100.853,313.542 102,314.5C 102.219,313.062 102.719,311.729 103.5,310.5C 104.167,310.833 104.833,311.167 105.5,311.5C 108.028,310.502 108.028,309.669 105.5,309C 107.321,306.544 107.988,303.711 107.5,300.5C 109.429,300.769 111.095,300.269 112.5,299C 111.551,298.383 110.718,298.549 110,299.5C 108.331,297.831 107.498,295.831 107.5,293.5C 109.288,293.785 110.955,293.452 112.5,292.5C 113.872,290.38 113.205,289.38 110.5,289.5C 110.351,288.448 110.517,287.448 111,286.5C 113.082,289.15 114.749,288.816 116,285.5C 118.055,285.848 120.055,285.181 122,283.5C 122.333,284.167 122.667,284.833 123,285.5C 125.251,285.106 127.751,284.606 130.5,284C 129.5,283.667 128.5,283.333 127.5,283C 129.283,281.933 129.783,280.433 129,278.5C 127.334,279.34 127.167,278.84 128.5,277C 124.728,276.389 124.728,275.389 128.5,274C 125.456,273.641 125.122,272.974 127.5,272C 126.376,271.751 125.376,271.251 124.5,270.5C 125.471,269.038 125.138,267.705 123.5,266.5C 124.378,264.252 124.045,262.085 122.5,260C 124.435,258.762 126.435,258.262 128.5,258.5C 130.652,255.135 131.652,251.468 131.5,247.5C 132.552,247.649 133.552,247.483 134.5,247C 133.747,245.513 132.914,245.346 132,246.5C 131.316,245.216 131.483,244.049 132.5,243C 131.675,241.312 130.675,241.145 129.5,242.5C 128.571,241.311 128.238,239.978 128.5,238.5C 126.239,237.591 124.072,237.258 122,237.5C 121.202,235.741 121.369,234.074 122.5,232.5C 126.481,231.494 126.481,230.494 122.5,229.5C 123.758,230.016 124.758,229.35 125.5,227.5C 124.833,227.167 124.167,226.833 123.5,226.5C 126.088,225.416 128.255,223.749 130,221.5C 130.893,222.711 131.726,222.711 132.5,221.5C 134.181,219.008 134.848,216.508 134.5,214C 136.991,213.374 136.991,212.541 134.5,211.5C 135.249,206.084 135.249,200.751 134.5,195.5C 136.644,194.114 137.977,192.614 138.5,191C 137.167,190.667 135.833,190.333 134.5,190C 138.185,189.086 137.852,188.419 133.5,188C 135.26,187.035 135.594,185.868 134.5,184.5C 132.566,184.099 131.066,183.099 130,181.5C 128.984,182.634 128.317,182.301 128,180.5C 127.344,184.002 126.011,184.002 124,180.5C 123.667,177.5 123.333,174.5 123,171.5C 122.5,171 122,170.5 121.5,170C 122.634,168.984 122.301,168.317 120.5,168C 121.833,167.333 121.833,166.667 120.5,166C 121.744,165.544 122.577,166.044 123,167.5C 122.534,164.9 121.034,162.734 118.5,161C 120.056,159.401 121.723,157.901 123.5,156.5C 123.299,154.352 122.966,152.186 122.5,150C 124.421,148.195 125.088,146.195 124.5,144C 123.833,143.667 123.167,143.333 122.5,143C 123.5,142.167 124.5,141.333 125.5,140.5C 124.242,141.016 123.242,140.35 122.5,138.5C 124.149,137.852 125.482,136.852 126.5,135.5C 128.423,134.692 130.423,134.192 132.5,134C 130.956,133.71 129.623,133.044 128.5,132C 130.027,130.632 131.527,130.132 133,130.5C 133.273,128.899 133.773,127.399 134.5,126C 133.773,124.601 133.273,123.101 133,121.5C 129.712,120.464 128.879,118.464 130.5,115.5C 128.883,113.368 128.383,111.035 129,108.5C 129.667,109.833 130.333,109.833 131,108.5C 131.373,106.302 131.873,104.135 132.5,102C 132.095,101.055 131.428,100.388 130.5,100C 130.966,98.7012 130.966,97.2012 130.5,95.5C 129.325,95.719 128.325,95.3857 127.5,94.5C 126.917,92.9984 126.084,91.6651 125,90.5C 126.288,86.7621 126.788,82.9288 126.5,79C 123.208,78.2441 122.208,76.4107 123.5,73.5C 125.853,74.565 128.186,74.3983 130.5,73C 128.939,72.6824 127.772,71.8491 127,70.5C 125.89,72.0368 124.39,72.7035 122.5,72.5C 122.917,69.9208 122.25,67.7542 120.5,66C 123.23,64.272 125.896,61.772 128.5,58.5C 130.223,57.3947 131.223,55.7281 131.5,53.5C 135.718,51.5586 140.051,49.8919 144.5,48.5C 143.34,50.2027 144.007,50.8693 146.5,50.5C 153.404,50.2944 160.071,49.1277 166.5,47C 193.165,46.5 219.831,46.3334 246.5,46.5 Z"/></g>
<g><path style="opacity:1" fill="#ad965e" d="M 528.5,281.5 C 529.29,282.609 529.79,283.942 530,285.5C 530.5,293.159 530.666,300.826 530.5,308.5C 529.33,313.829 528.497,319.162 528,324.5C 548.691,349.789 555.858,378.456 549.5,410.5C 549.828,398.655 549.495,386.988 548.5,375.5C 545.621,355.417 537.621,337.75 524.5,322.5C 528.107,309.087 529.441,295.421 528.5,281.5 Z"/></g>
<g><path style="opacity:1" fill="#625b40" d="M 607.5,276.5 C 612.398,283.283 616.565,290.616 620,298.5C 629.185,320.215 636.019,342.548 640.5,365.5C 643.779,399.297 641.279,432.63 633,465.5C 630.962,472.459 628.462,479.126 625.5,485.5C 650.159,413.086 644.159,343.42 607.5,276.5 Z"/></g>
<g><path style="opacity:1" fill="#4f4a36" d="M 44.5,617.5 C 44.4672,621.869 44.8005,626.202 45.5,630.5C 45.6602,632.199 45.4935,633.866 45,635.5C 44.1184,632.211 43.4517,628.877 43,625.5C 42.5172,626.448 42.3505,627.448 42.5,628.5C 41.5489,627.081 41.2155,625.415 41.5,623.5C 42.3331,476.001 42.8331,328.334 43,180.5C 43.1669,326.334 43.6669,472.001 44.5,617.5 Z"/></g>
<g><path style="opacity:1" fill="#c7b67d" d="M 548.5,375.5 C 549.495,386.988 549.828,398.655 549.5,410.5C 549.5,411.5 549.5,412.5 549.5,413.5C 548.651,415.888 547.651,418.221 546.5,420.5C 548.197,405.561 548.864,390.561 548.5,375.5 Z"/></g>
<g><path style="opacity:1" fill="#686044" d="M 270.5,328.5 C 265.519,335.783 261.019,343.449 257,351.5C 245.792,388.089 248.959,423.422 266.5,457.5C 261.725,451.622 258.225,444.955 256,437.5C 249.833,415.907 247.833,393.907 250,371.5C 252.588,354.995 259.422,340.662 270.5,328.5 Z"/></g>
<g><path style="opacity:1" fill="#a2874b" d="M 271.5,323.5 C 272.167,323.5 272.833,323.5 273.5,323.5C 272.075,324.922 271.075,326.589 270.5,328.5C 259.422,340.662 252.588,354.995 250,371.5C 247.833,393.907 249.833,415.907 256,437.5C 258.225,444.955 261.725,451.622 266.5,457.5C 267.441,459.466 268.441,461.466 269.5,463.5C 269.376,464.107 269.043,464.44 268.5,464.5C 257.244,447.958 250.411,429.624 248,409.5C 242.166,376.812 250,348.145 271.5,323.5 Z"/></g>
<g><path style="opacity:1" fill="#aba074" d="M 640.5,365.5 C 642.018,368.534 642.851,371.867 643,375.5C 644.947,403.124 643.114,430.458 637.5,457.5C 634.198,467.742 630.865,478.076 627.5,488.5C 620.843,504.813 612.843,520.48 603.5,535.5C 595.91,545.764 587.91,555.764 579.5,565.5C 564.604,581.078 548.27,594.745 530.5,606.5C 525.535,608.649 520.868,611.316 516.5,614.5C 510.349,616.234 504.349,618.568 498.5,621.5C 497.537,621.03 497.537,620.363 498.5,619.5C 539.041,600.635 572.374,572.969 598.5,536.5C 609.405,522.699 617.738,507.366 623.5,490.5C 624.931,489.22 625.598,487.553 625.5,485.5C 628.462,479.126 630.962,472.459 633,465.5C 641.279,432.63 643.779,399.297 640.5,365.5 Z"/></g>
<g><path style="opacity:1" fill="#a88d4f" d="M 510.5,187.5 C 511.167,187.5 511.833,187.5 512.5,187.5C 522.427,192.768 532.093,198.435 541.5,204.5C 548.31,210.469 555.31,216.302 562.5,222C 569.063,228.395 575.397,234.895 581.5,241.5C 590.422,253.027 599.089,264.693 607.5,276.5C 644.159,343.42 650.159,413.086 625.5,485.5C 625.598,487.553 624.931,489.22 623.5,490.5C 616.201,506.433 607.868,521.767 598.5,536.5C 572.374,572.969 539.041,600.635 498.5,619.5C 497.5,619.5 496.5,619.5 495.5,619.5C 505.105,614.362 514.772,609.195 524.5,604C 591.763,560.33 629.596,498.497 638,418.5C 641.615,315.454 599.115,238.454 510.5,187.5 Z"/></g>
<g><path style="opacity:1" fill="#dfd5a4" d="M 637.5,457.5 C 637.229,459.821 637.896,461.821 639.5,463.5C 638.083,468.339 636.749,473.172 635.5,478C 637.604,480.042 638.771,482.542 639,485.5C 640.012,492.738 641.179,499.905 642.5,507C 642.771,515.353 642.771,523.853 642.5,532.5C 644.613,561.739 646.613,591.239 648.5,621C 647.883,632.66 648.549,644.327 650.5,656C 650.854,670.07 650.854,683.404 650.5,696C 651.427,700.916 652.093,705.916 652.5,711C 651.61,720.147 652.61,729.48 655.5,739C 654.388,741.119 653.388,743.619 652.5,746.5C 651.527,746.987 650.527,747.487 649.5,748C 649.728,748.399 650.062,748.565 650.5,748.5C 643.633,751.677 636.299,753.343 628.5,753.5C 628.062,753.565 627.728,753.399 627.5,753C 630.784,751.875 634.117,750.875 637.5,750C 638.55,747.739 639.55,745.072 640.5,742C 638.98,726.88 638.146,711.713 638,696.5C 637.749,694.567 637.249,692.734 636.5,691C 636.833,690.667 637.167,690.333 637.5,690C 636.833,687.333 636.167,684.667 635.5,682C 636.302,673.591 636.636,665.258 636.5,657C 635.259,650.416 634.259,643.75 633.5,637C 633.57,625.942 633.57,614.942 633.5,604C 632.648,601.583 631.981,599.083 631.5,596.5C 631.421,592.034 631.754,587.367 632.5,582.5C 631.275,560.835 629.775,539.168 628,517.5C 626.893,514.121 625.393,510.954 623.5,508C 626.334,501.66 627.668,495.16 627.5,488.5C 630.865,478.076 634.198,467.742 637.5,457.5 Z"/></g>
<g><path style="opacity:1" fill="#b69f66" d="M 549.5,413.5 C 545.258,453.371 524.592,480.371 487.5,494.5C 493.249,491.122 499.249,487.956 505.5,485C 507.618,483.951 509.284,482.451 510.5,480.5C 529.651,464.877 541.651,444.877 546.5,420.5C 547.651,418.221 548.651,415.888 549.5,413.5 Z"/></g>
<g><path style="opacity:1" fill="#c6ab60" d="M 276.5,473.5 C 276.897,472.475 277.563,472.308 278.5,473C 281.014,475.415 283.681,477.581 286.5,479.5C 292.11,483.781 298.11,487.615 304.5,491C 311.175,492.832 317.509,495.332 323.5,498.5C 322.833,498.5 322.167,498.5 321.5,498.5C 304.28,494.059 289.28,485.726 276.5,473.5 Z"/></g>
<g><path style="opacity:1" fill="#b0aba0" d="M 341.5,532.5 C 341.657,533.873 341.49,535.207 341,536.5C 338.254,538.455 335.42,540.122 332.5,541.5C 320.5,544.167 308.5,544.167 296.5,541.5C 291.914,540.54 287.914,538.54 284.5,535.5C 277.309,528.478 271.476,520.478 267,511.5C 261.3,504.454 254.467,498.954 246.5,495C 244.866,494.506 243.199,494.34 241.5,494.5C 237.519,493.979 233.519,493.646 229.5,493.5C 228.5,493.5 227.5,493.5 226.5,493.5C 228.273,492.108 230.273,490.941 232.5,490C 242.117,488.33 251.117,489.997 259.5,495C 268.803,501.641 275.969,510.141 281,520.5C 286.02,526.86 292.187,531.693 299.5,535C 313.777,538.819 327.777,537.986 341.5,532.5 Z"/></g>
<g><path style="opacity:1" fill="#e1d7a9" d="M 510.5,480.5 C 509.284,482.451 507.618,483.951 505.5,485C 499.249,487.956 493.249,491.122 487.5,494.5C 477.431,497.598 467.097,499.598 456.5,500.5C 454.833,500.333 453.167,500.167 451.5,500C 457.16,498.173 462.827,496.673 468.5,495.5C 480.041,492.892 491.041,488.892 501.5,483.5C 501.56,484.043 501.893,484.376 502.5,484.5C 505.22,483.14 507.886,481.807 510.5,480.5 Z"/></g>
<g><path style="opacity:1" fill="#fcfbf0" d="M 229.5,493.5 C 233.519,493.646 237.519,493.979 241.5,494.5C 249.825,497.629 256.991,502.629 263,509.5C 266.418,515.337 270.084,521.004 274,526.5C 277.098,530.107 280.598,533.107 284.5,535.5C 287.914,538.54 291.914,540.54 296.5,541.5C 298.877,542.887 301.543,543.721 304.5,544C 312.531,544.488 320.531,544.488 328.5,544C 318.063,547.556 307.396,548.389 296.5,546.5C 286.735,543.196 278.568,537.529 272,529.5C 268,523.5 264,517.5 260,511.5C 251.71,502.786 241.543,497.786 229.5,496.5C 229.5,495.5 229.5,494.5 229.5,493.5 Z"/></g>
<g><path style="opacity:1" fill="#dcd29f" d="M 627.5,488.5 C 627.668,495.16 626.334,501.66 623.5,508C 625.393,510.954 626.893,514.121 628,517.5C 629.775,539.168 631.275,560.835 632.5,582.5C 631.754,587.367 631.421,592.034 631.5,596.5C 631.981,599.083 632.648,601.583 633.5,604C 633.57,614.942 633.57,625.942 633.5,637C 634.259,643.75 635.259,650.416 636.5,657C 636.636,665.258 636.302,673.591 635.5,682C 636.167,684.667 636.833,687.333 637.5,690C 637.167,690.333 636.833,690.667 636.5,691C 637.249,692.734 637.749,694.567 638,696.5C 638.146,711.713 638.98,726.88 640.5,742C 639.55,745.072 638.55,747.739 637.5,750C 634.117,750.875 630.784,751.875 627.5,753C 627.728,753.399 628.062,753.565 628.5,753.5C 627.791,754.404 626.791,754.737 625.5,754.5C 621.491,754.961 617.824,754.128 614.5,752C 615.357,751.311 616.023,750.478 616.5,749.5C 615.546,739.796 614.546,729.963 613.5,720C 613.957,719.586 614.291,719.086 614.5,718.5C 613.985,702.939 612.985,687.439 611.5,672C 611.876,668.453 612.209,664.953 612.5,661.5C 610.702,654.204 610.369,646.87 611.5,639.5C 609.98,627.004 608.98,614.504 608.5,602C 608.833,601.667 609.167,601.333 609.5,601C 606.571,591.94 605.904,582.94 607.5,574C 606.716,566.536 606.216,559.036 606,551.5C 605.402,548.692 604.235,546.192 602.5,544C 603.88,541.098 605.046,538.264 606,535.5C 604.608,537.842 603.775,537.842 603.5,535.5C 612.843,520.48 620.843,504.813 627.5,488.5 Z"/></g>
<g><path style="opacity:1" fill="#b8ad7e" d="M 224.5,494.5 C 224.842,493.662 225.508,493.328 226.5,493.5C 227.5,493.5 228.5,493.5 229.5,493.5C 229.5,494.5 229.5,495.5 229.5,496.5C 241.543,497.786 251.71,502.786 260,511.5C 264,517.5 268,523.5 272,529.5C 278.568,537.529 286.735,543.196 296.5,546.5C 299.289,549.402 302.623,551.568 306.5,553C 305.291,556.037 304.457,559.204 304,562.5C 303.535,563.931 302.701,565.097 301.5,566C 304.167,566.333 306.833,566.667 309.5,567C 305.736,567.985 301.903,568.485 298,568.5C 292.03,568.23 286.196,567.23 280.5,565.5C 275.262,562.93 270.928,559.264 267.5,554.5C 263.564,542.26 258.064,530.26 251,518.5C 250,517.5 249,516.5 248,515.5C 247.601,515.728 247.435,516.062 247.5,516.5C 243.494,512.827 239.494,509.16 235.5,505.5C 230.715,504.383 227.048,501.716 224.5,497.5C 225.381,496.029 226.714,495.196 228.5,495C 227.207,494.51 225.873,494.343 224.5,494.5 Z"/></g>
<g><path style="opacity:1" fill="#c8aa65" d="M 241.5,494.5 C 243.199,494.34 244.866,494.506 246.5,495C 254.467,498.954 261.3,504.454 267,511.5C 271.476,520.478 277.309,528.478 284.5,535.5C 280.598,533.107 277.098,530.107 274,526.5C 270.084,521.004 266.418,515.337 263,509.5C 256.991,502.629 249.825,497.629 241.5,494.5 Z"/></g>
<g><path style="opacity:1" fill="#fcfaf0" d="M 441.5,506.5 C 448.565,514.964 453.232,524.631 455.5,535.5C 456.434,557.814 456.767,580.147 456.5,602.5C 456.334,608.509 456.501,614.509 457,620.5C 458.162,624.321 460.662,626.654 464.5,627.5C 465.5,627.5 466.5,627.5 467.5,627.5C 470.028,628.166 472.694,628.832 475.5,629.5C 464.782,634.605 457.616,631.605 454,620.5C 453.667,594.5 453.333,568.5 453,542.5C 451.862,525.384 444.362,511.884 430.5,502C 431.833,501.333 433.167,501.333 434.5,502C 436.734,503.75 439.068,505.25 441.5,506.5 Z"/></g>
<g><path style="opacity:1" fill="#857e72" d="M 442.5,504.5 C 443.5,504.5 444.5,504.5 445.5,504.5C 446.833,507.5 448.167,510.5 449.5,513.5C 446.791,510.792 444.458,507.792 442.5,504.5 Z"/></g>
<g><path style="opacity:1" fill="#ceb05f" d="M 224.5,494.5 C 225.873,494.343 227.207,494.51 228.5,495C 226.714,495.196 225.381,496.029 224.5,497.5C 227.048,501.716 230.715,504.383 235.5,505.5C 239.494,509.16 243.494,512.827 247.5,516.5C 249.837,519.681 252.004,523.014 254,526.5C 258.417,535.941 262.917,545.275 267.5,554.5C 270.928,559.264 275.262,562.93 280.5,565.5C 282.849,567.341 285.515,568.674 288.5,569.5C 290.5,570.5 292.5,571.5 294.5,572.5C 284.055,570.861 275.221,566.194 268,558.5C 261.958,546.083 255.624,533.75 249,521.5C 246.872,518.37 244.372,515.537 241.5,513C 234.76,508.93 228.593,504.096 223,498.5C 222.227,496.648 222.727,495.314 224.5,494.5 Z"/></g>
<g><path style="opacity:1" fill="#9d8a5a" d="M 321.5,498.5 C 322.167,498.5 322.833,498.5 323.5,498.5C 331.791,500.093 340.124,501.593 348.5,503C 353.833,503.333 359.167,503.667 364.5,504C 360.458,506.393 356.791,509.227 353.5,512.5C 352.923,511.227 352.257,511.227 351.5,512.5C 349.318,516.864 347.151,521.198 345,525.5C 344.536,524.906 344.369,524.239 344.5,523.5C 346.429,516.975 349.429,510.975 353.5,505.5C 342.57,503.796 331.904,501.462 321.5,498.5 Z"/></g>
<g><path style="opacity:1" fill="#696044" d="M 353.5,512.5 C 348.093,521.226 344.426,529.893 342.5,538.5C 343.465,534.521 343.965,530.521 344,526.5C 343.617,527.056 343.117,527.389 342.5,527.5C 342.66,525.847 343.326,524.514 344.5,523.5C 344.369,524.239 344.536,524.906 345,525.5C 347.151,521.198 349.318,516.864 351.5,512.5C 352.257,511.227 352.923,511.227 353.5,512.5 Z"/></g>
<g><path style="opacity:1" fill="#a6925c" d="M 442.5,504.5 C 444.458,507.792 446.791,510.792 449.5,513.5C 456.063,524.082 459.063,535.749 458.5,548.5C 457.743,544.119 456.743,539.786 455.5,535.5C 453.232,524.631 448.565,514.964 441.5,506.5C 439.969,505.075 440.302,504.409 442.5,504.5 Z"/></g>
<g><path style="opacity:1" fill="#72694a" d="M 623.5,490.5 C 617.738,507.366 609.405,522.699 598.5,536.5C 607.868,521.767 616.201,506.433 623.5,490.5 Z"/></g>
<g><path style="opacity:1" fill="#b59551" d="M 342.5,538.5 C 339.345,540.076 336.012,541.076 332.5,541.5C 335.42,540.122 338.254,538.455 341,536.5C 341.49,535.207 341.657,533.873 341.5,532.5C 342.038,530.883 342.371,529.216 342.5,527.5C 343.117,527.389 343.617,527.056 344,526.5C 343.965,530.521 343.465,534.521 342.5,538.5 Z"/></g>
<g><path style="opacity:1" fill="#cfac60" d="M 183.5,507.5 C 184.167,507.833 184.833,508.167 185.5,508.5C 203.735,542.276 228.068,570.943 258.5,594.5C 251.45,590.297 244.784,585.464 238.5,580C 215.403,559.239 197.07,535.072 183.5,507.5 Z"/></g>
<g><path style="opacity:1" fill="#7a714f" d="M 267.5,554.5 C 262.917,545.275 258.417,535.941 254,526.5C 252.004,523.014 249.837,519.681 247.5,516.5C 247.435,516.062 247.601,515.728 248,515.5C 249,516.5 250,517.5 251,518.5C 258.064,530.26 263.564,542.26 267.5,554.5 Z"/></g>
<g><path style="opacity:1" fill="#d7cc98" d="M 603.5,535.5 C 603.775,537.842 604.608,537.842 606,535.5C 605.046,538.264 603.88,541.098 602.5,544C 604.235,546.192 605.402,548.692 606,551.5C 606.216,559.036 606.716,566.536 607.5,574C 605.904,582.94 606.571,591.94 609.5,601C 609.167,601.333 608.833,601.667 608.5,602C 608.98,614.504 609.98,627.004 611.5,639.5C 610.369,646.87 610.702,654.204 612.5,661.5C 612.209,664.953 611.876,668.453 611.5,672C 612.985,687.439 613.985,702.939 614.5,718.5C 614.291,719.086 613.957,719.586 613.5,720C 614.546,729.963 615.546,739.796 616.5,749.5C 616.023,750.478 615.357,751.311 614.5,752C 617.824,754.128 621.491,754.961 625.5,754.5C 624.391,755.29 623.058,755.79 621.5,756C 548.667,756.167 475.833,756.333 403,756.5C 327.146,756.653 251.313,756.153 175.5,755C 276.833,754.5 378.166,754.333 479.5,754.5C 513.849,754.859 548.183,754.359 582.5,753C 582.094,739.742 581.428,725.908 580.5,711.5C 580.524,708.579 580.857,705.746 581.5,703C 580.379,697.401 579.379,691.734 578.5,686C 579.47,683.768 579.803,681.268 579.5,678.5C 577.573,655.702 575.907,632.869 574.5,610C 575.952,600.235 574.952,590.402 571.5,580.5C 574.597,575.284 577.264,570.284 579.5,565.5C 587.91,555.764 595.91,545.764 603.5,535.5 Z"/></g>
<g><path style="opacity:1" fill="#e2cd82" d="M 288.5,569.5 C 300.071,571.3 311.738,571.966 323.5,571.5C 323.5,571.833 323.5,572.167 323.5,572.5C 313.791,573.783 304.124,573.783 294.5,572.5C 292.5,571.5 290.5,570.5 288.5,569.5 Z"/></g>
<g><path style="opacity:1" fill="#504a34" d="M 341.5,568.5 C 342.662,585.662 342.829,602.995 342,620.5C 341.777,622.881 340.61,624.547 338.5,625.5C 339.32,623.188 340.153,620.854 341,618.5C 341.5,601.837 341.667,585.17 341.5,568.5 Z"/></g>
<g><path style="opacity:1" fill="#d1c591" d="M 579.5,565.5 C 577.264,570.284 574.597,575.284 571.5,580.5C 574.952,590.402 575.952,600.235 574.5,610C 575.907,632.869 577.573,655.702 579.5,678.5C 579.803,681.268 579.47,683.768 578.5,686C 579.379,691.734 580.379,697.401 581.5,703C 580.857,705.746 580.524,708.579 580.5,711.5C 581.428,725.908 582.094,739.742 582.5,753C 548.183,754.359 513.849,754.859 479.5,754.5C 482.625,753.521 485.958,753.187 489.5,753.5C 504.264,753.967 518.93,753.467 533.5,752C 532.167,751.667 530.833,751.333 529.5,751C 531.276,745.345 531.942,739.679 531.5,734C 529.183,727.142 528.85,720.142 530.5,713C 528.336,699.878 527.67,686.711 528.5,673.5C 527.443,661.615 526.443,649.782 525.5,638C 525.833,637.667 526.167,637.333 526.5,637C 525.388,630.222 524.388,623.222 523.5,616C 525.891,614.691 525.891,613.691 523.5,613C 525.5,611.667 527.5,610.333 529.5,609C 530.252,608.329 530.586,607.496 530.5,606.5C 548.27,594.745 564.604,581.078 579.5,565.5 Z"/></g>
<g><path style="opacity:1" fill="#e0cd7e" d="M 455.5,535.5 C 456.743,539.786 457.743,544.119 458.5,548.5C 458.5,560.167 458.5,571.833 458.5,583.5C 457.833,589.833 457.167,596.167 456.5,602.5C 456.767,580.147 456.434,557.814 455.5,535.5 Z"/></g>
<g><path style="opacity:1" fill="#a08447" d="M 341.5,568.5 C 341.667,585.17 341.5,601.837 341,618.5C 340.153,620.854 339.32,623.188 338.5,625.5C 336.442,626.933 334.108,627.6 331.5,627.5C 336.933,624.984 339.6,620.65 339.5,614.5C 339.5,599.833 339.5,585.167 339.5,570.5C 334.196,571.384 328.863,572.051 323.5,572.5C 323.5,572.167 323.5,571.833 323.5,571.5C 329.536,570.497 335.536,569.497 341.5,568.5 Z"/></g>
<g><path style="opacity:1" fill="#cda960" d="M 258.5,594.5 C 262.852,596.673 266.852,599.34 270.5,602.5C 265.803,600.822 261.803,598.156 258.5,594.5 Z"/></g>
<g><path style="opacity:1" fill="#c1a56b" d="M 270.5,602.5 C 274.742,602.955 278.075,604.955 280.5,608.5C 276.827,607 273.494,605 270.5,602.5 Z"/></g>
<g><path style="opacity:1" fill="#cabe8b" d="M 530.5,606.5 C 530.586,607.496 530.252,608.329 529.5,609C 527.5,610.333 525.5,611.667 523.5,613C 525.891,613.691 525.891,614.691 523.5,616C 524.388,623.222 525.388,630.222 526.5,637C 526.167,637.333 525.833,637.667 525.5,638C 526.443,649.782 527.443,661.615 528.5,673.5C 527.67,686.711 528.336,699.878 530.5,713C 528.85,720.142 529.183,727.142 531.5,734C 531.942,739.679 531.276,745.345 529.5,751C 530.833,751.333 532.167,751.667 533.5,752C 518.93,753.467 504.264,753.967 489.5,753.5C 487.369,752.686 485.036,752.186 482.5,752C 484.167,751.667 485.833,751.333 487.5,751C 488.022,750.439 488.355,749.772 488.5,749C 487.746,744.205 487.246,739.372 487,734.5C 486.308,733.975 485.808,733.308 485.5,732.5C 485.578,715.91 485.578,699.743 485.5,684C 483.564,679.187 482.231,674.187 481.5,669C 482.429,660.876 482.762,652.543 482.5,644C 481.569,639.811 480.902,635.811 480.5,632C 492.674,626.412 504.674,620.579 516.5,614.5C 520.868,611.316 525.535,608.649 530.5,606.5 Z"/></g>
<g><path style="opacity:1" fill="#c4ae6c" d="M 458.5,583.5 C 458.5,593.833 458.5,604.167 458.5,614.5C 458.623,619.743 460.623,624.076 464.5,627.5C 460.662,626.654 458.162,624.321 457,620.5C 456.501,614.509 456.334,608.509 456.5,602.5C 457.167,596.167 457.833,589.833 458.5,583.5 Z"/></g>
<g><path style="opacity:1" fill="#b89e6d" d="M 298.5,617.5 C 302.165,617.502 305.165,618.835 307.5,621.5C 304.088,620.925 301.088,619.592 298.5,617.5 Z"/></g>
<g><path style="opacity:1" fill="#696348" d="M 45.5,630.5 C 45.8333,630.5 46.1667,630.5 46.5,630.5C 48.7912,651.041 55.4579,670.041 66.5,687.5C 65.6715,688.332 64.8382,687.999 64,686.5C 56.1414,672.795 49.9748,658.461 45.5,643.5C 43.7632,638.77 42.7632,633.77 42.5,628.5C 42.3505,627.448 42.5172,626.448 43,625.5C 43.4517,628.877 44.1184,632.211 45,635.5C 45.4935,633.866 45.6602,632.199 45.5,630.5 Z"/></g>
<g><path style="opacity:1" fill="#8f8665" d="M 45.5,643.5 C 49.9748,658.461 56.1414,672.795 64,686.5C 64.8382,687.999 65.6715,688.332 66.5,687.5C 70.8594,693.041 74.8594,698.874 78.5,705C 77.944,705.383 77.6107,705.883 77.5,706.5C 61.3147,688.465 50.6481,667.465 45.5,643.5 Z"/></g>
</svg>
